<svg width="20" height="16" viewBox="0 0 20 16" fill="none" xmlns="http://www.w3.org/2000/svg">
<path fill-rule="evenodd" clip-rule="evenodd" d="M13 10.51V5.19995C14.167 4.28895 13.4 4.86611 16.821 2.33911C17.153 2.10011 18 2.28105 18 2.74805C18 15.895 19.034 15.081 13 10.51ZM10.33 13.5C9.961 13.5 3.06299 8.48402 2.76199 8.27002C2.46599 8.05702 2.48199 7.65411 2.74699 7.46411L9.886 2.33105C10.212 2.09705 11 2.27589 11 2.73389C11 13.2959 11.33 13.5 10.33 13.5ZM17.255 0.23999C16.076 0.23999 15.748 0.669994 12.998 2.71899C12.988 1.25299 11.62 0.23291 10.33 0.23291C9.36 0.23291 7.921 1.587 2 6V1C2 0.447 1.552 0 1 0C0.448 0 0 0.447 0 1V15C0 15.552 0.448 16 1 16C1.552 16 2 15.552 2 15V10L8.718 14.927C9.172 15.253 9.839 15.45 10.33 15.45C11.609 15.45 12.96 14.4731 12.994 13.0281C15.578 14.9501 16.009 15.4871 17.296 15.4871C18.595 15.4871 20 14.4641 20 12.9851V2.74805C20 1.26905 18.554 0.23999 17.255 0.23999Z" fill="#A06933"/>
</svg>
