<svg width="33" height="29" viewBox="0 0 33 29" fill="none" xmlns="http://www.w3.org/2000/svg">
<path d="M11 7.2497C11.3647 7.2497 11.7144 7.37701 11.9723 7.60362C12.2301 7.83022 12.375 8.13757 12.375 8.45804V13.0739L12.5675 12.8926L19.58 7.80554C20.0022 7.50828 20.5109 7.32122 21.0481 7.26567C21.5854 7.21013 22.1296 7.28833 22.6187 7.49137C23.031 7.66482 23.3789 7.93731 23.6223 8.27732C23.8656 8.61733 23.9944 9.01095 23.9937 9.41262V19.5868C23.9944 19.9884 23.8656 20.3821 23.6223 20.7221C23.3789 21.0621 23.031 21.3346 22.6187 21.508C22.2257 21.6651 21.7993 21.7475 21.3675 21.7497C20.7167 21.7504 20.0855 21.5541 19.58 21.1939L12.5675 16.1068L12.375 15.9255V20.5414C12.375 20.8618 12.2301 21.1692 11.9723 21.3958C11.7144 21.6224 11.3647 21.7497 11 21.7497C10.6353 21.7497 10.2856 21.6224 10.0277 21.3958C9.76986 21.1692 9.62499 20.8618 9.62499 20.5414V8.45804C9.62499 8.13757 9.76986 7.83022 10.0277 7.60362C10.2856 7.37701 10.6353 7.2497 11 7.2497ZM21.3125 19.2243V9.66637L14.685 14.4997L21.3125 19.2243Z" fill="#A06933"/>
</svg>