<svg width="23" height="21" viewBox="0 0 23 21" fill="none" xmlns="http://www.w3.org/2000/svg">
<path fill-rule="evenodd" clip-rule="evenodd" d="M14.7 10.5C14.7 11.0796 14.2296 11.55 13.65 11.55H7.35001C6.77041 11.55 6.3 11.0796 6.3 10.5C6.3 9.9204 6.77041 9.45 7.35001 9.45H13.65C14.2296 9.45 14.7 9.9204 14.7 10.5ZM10.5 18.9C5.86845 18.9 2.10001 15.1315 2.10001 10.5C2.10001 5.86845 5.86845 2.1 10.5 2.1C15.1315 2.1 18.9 5.86845 18.9 10.5C18.9 15.1315 15.1315 18.9 10.5 18.9ZM10.5 0C4.70085 0 0 4.70085 0 10.5C0 16.2991 4.70085 21 10.5 21C16.2992 21 21 16.2991 21 10.5C21 4.70085 16.2992 0 10.5 0Z" fill="#D4A373"/>
</svg>
