<?xml version="1.0" encoding="UTF-8"?>
<svg xmlns="http://www.w3.org/2000/svg" xmlns:xlink="http://www.w3.org/1999/xlink" width="124px" height="30px" viewBox="0 0 123 30" version="1.1">
<g id="surface1">
<path style=" stroke:none;fill-rule:evenodd;fill:rgb(98.823529%,98.823529%,98.823529%);fill-opacity:1;" d="M 11.941406 10.128906 C 11.703125 10.167969 11.304688 10.257812 11.054688 10.332031 C 10.808594 10.40625 10.578125 10.464844 10.546875 10.464844 C 10.441406 10.464844 9.476562 10.980469 9.070312 11.253906 C 5.050781 13.960938 5.09375 20.132812 9.148438 22.902344 C 9.316406 23.019531 9.480469 23.132812 9.507812 23.15625 C 10.59375 24.089844 13.558594 24.683594 15.371094 24.332031 C 15.699219 24.269531 15.683594 24.269531 15.679688 24.316406 C 15.679688 24.414062 14.871094 24.683594 14.167969 24.824219 C 13.511719 24.957031 13.628906 25.027344 14.488281 25.019531 C 15.894531 25.007812 17.273438 24.578125 18.46875 23.777344 C 19.050781 23.386719 20.105469 22.359375 20.324219 21.972656 C 20.402344 21.835938 20.503906 21.679688 20.550781 21.625 C 20.601562 21.566406 20.714844 21.371094 20.808594 21.1875 C 20.902344 21 21.042969 20.722656 21.121094 20.5625 C 21.519531 19.789062 21.832031 17.960938 21.757812 16.855469 C 21.671875 15.570312 21.242188 13.566406 20.984375 13.246094 C 20.949219 13.203125 20.863281 12.992188 20.792969 12.777344 C 20.570312 12.101562 19.898438 10.773438 19.78125 10.773438 C 19.648438 10.773438 19.640625 10.734375 19.933594 11.460938 C 21.125 14.425781 21.324219 16.652344 20.625 19.199219 C 20.550781 19.480469 20.234375 20.207031 20.132812 20.335938 C 20.109375 20.363281 19.96875 20.574219 19.820312 20.800781 C 19.164062 21.808594 17.929688 22.8125 16.914062 23.164062 C 16.757812 23.21875 16.609375 23.28125 16.578125 23.300781 C 16.078125 23.667969 13.457031 23.671875 12.632812 23.304688 C 12.578125 23.277344 12.414062 23.21875 12.273438 23.167969 C 11.949219 23.050781 11.121094 22.636719 10.78125 22.414062 C 10.269531 22.078125 9.445312 21.328125 9.210938 20.980469 C 9.125 20.851562 9.027344 20.722656 8.992188 20.695312 C 8.878906 20.601562 8.402344 19.71875 8.453125 19.699219 C 8.484375 19.691406 8.71875 19.765625 8.980469 19.867188 C 14.765625 22.097656 19.773438 19.070312 18.371094 14.195312 C 18.003906 12.929688 17.140625 11.746094 16.070312 11.046875 C 15.871094 10.917969 15.652344 10.773438 15.582031 10.722656 C 14.886719 10.246094 13.035156 9.945312 11.941406 10.128906 M 13.511719 12.109375 C 14.464844 12.304688 15.390625 12.90625 15.902344 13.660156 C 15.992188 13.789062 16.089844 13.921875 16.125 13.953125 C 16.519531 14.363281 16.722656 16.082031 16.460938 16.824219 C 16.316406 17.230469 15.730469 17.988281 15.558594 17.988281 C 15.535156 17.988281 15.441406 18.042969 15.355469 18.109375 C 14.914062 18.445312 13.804688 18.808594 13.078125 18.863281 C 11.425781 18.980469 8.59375 18.460938 8.035156 17.9375 C 7.972656 17.882812 7.90625 17.835938 7.882812 17.835938 C 7.859375 17.835938 7.839844 17.523438 7.839844 17.144531 C 7.839844 14.457031 9.625 12.464844 12.402344 12.042969 C 12.710938 11.996094 13.074219 12.019531 13.511719 12.109375 "/>
<path style=" stroke:none;fill-rule:evenodd;fill:rgb(23.529412%,32.941176%,51.764706%);fill-opacity:1;" d="M 12.066406 0.191406 C 12.015625 0.269531 11.808594 0.519531 11.609375 0.746094 C 11.410156 0.972656 11.191406 1.242188 11.125 1.339844 C 11.054688 1.4375 10.964844 1.558594 10.921875 1.605469 C 10.796875 1.730469 10.660156 1.90625 10.660156 1.933594 C 10.660156 1.945312 10.542969 2.078125 10.402344 2.226562 C 10.261719 2.375 10.148438 2.519531 10.148438 2.550781 C 10.148438 2.582031 10.105469 2.644531 10.050781 2.6875 C 10 2.734375 9.691406 3.105469 9.367188 3.511719 C 9.042969 3.921875 8.738281 4.285156 8.691406 4.324219 C 8.648438 4.363281 8.609375 4.417969 8.609375 4.441406 C 8.609375 4.503906 8.332031 4.910156 8.183594 5.066406 C 8.121094 5.132812 8.046875 5.222656 8.019531 5.265625 C 7.992188 5.308594 7.859375 5.507812 7.726562 5.707031 C 7.59375 5.90625 7.480469 6.089844 7.480469 6.113281 C 7.480469 6.140625 7.421875 6.230469 7.347656 6.316406 C 7.273438 6.398438 7.15625 6.5625 7.085938 6.675781 C 7.015625 6.789062 6.859375 7.03125 6.738281 7.214844 C 6.617188 7.402344 6.425781 7.726562 6.316406 7.9375 C 6.203125 8.152344 6.03125 8.449219 5.929688 8.605469 C 5.828125 8.757812 5.609375 9.148438 5.445312 9.472656 C 5.285156 9.792969 5.066406 10.222656 4.960938 10.429688 C 4.71875 10.90625 4.339844 11.726562 4.253906 11.957031 C 3.9375 12.835938 3.742188 13.453125 3.742188 13.585938 C 3.742188 13.671875 3.722656 13.765625 3.695312 13.792969 C 3.636719 13.855469 3.460938 14.640625 3.375 15.230469 C 3.285156 15.824219 3.285156 17.496094 3.375 17.914062 C 3.492188 18.480469 3.652344 19.097656 3.691406 19.125 C 3.710938 19.136719 3.738281 19.238281 3.757812 19.351562 C 3.773438 19.460938 3.917969 19.820312 4.074219 20.152344 C 4.226562 20.480469 4.355469 20.765625 4.355469 20.78125 C 4.355469 20.84375 4.855469 21.570312 4.964844 21.671875 C 5.023438 21.722656 5.074219 21.800781 5.074219 21.835938 C 5.074219 21.875 5.121094 21.933594 5.175781 21.972656 C 5.234375 22.007812 5.277344 22.058594 5.277344 22.085938 C 5.277344 22.257812 7.003906 23.710938 7.207031 23.710938 C 7.246094 23.710938 7.277344 23.730469 7.277344 23.75 C 7.277344 23.859375 8.753906 24.503906 9.355469 24.664062 C 10.121094 24.867188 10.960938 25.011719 11.335938 25.003906 C 11.550781 25 11.742188 25.023438 11.761719 25.050781 C 11.804688 25.121094 12.644531 25.117188 12.6875 25.046875 C 12.703125 25.019531 12.851562 24.996094 13.007812 25 C 13.574219 25.015625 13.683594 25.003906 13.652344 24.929688 C 13.636719 24.882812 13.726562 24.84375 13.996094 24.796875 C 14.199219 24.761719 14.5625 24.664062 14.804688 24.582031 L 15.246094 24.4375 L 14.914062 24.46875 C 13.738281 24.578125 11.910156 24.371094 11.191406 24.042969 C 11.101562 24.003906 11.007812 23.96875 10.980469 23.96875 C 10.957031 23.96875 10.816406 23.910156 10.671875 23.839844 C 10.523438 23.769531 10.378906 23.710938 10.351562 23.710938 C 9.941406 23.710938 7.96875 22.117188 7.542969 21.441406 C 7.5 21.371094 7.394531 21.226562 7.3125 21.117188 C 7.226562 21.007812 7.121094 20.84375 7.070312 20.757812 C 6.632812 19.949219 6.40625 19.503906 6.40625 19.457031 C 6.40625 19.421875 6.359375 19.261719 6.300781 19.09375 C 5.492188 16.746094 6.273438 13.625 8.089844 11.957031 C 9.101562 11.027344 9.84375 10.617188 11.273438 10.191406 C 12.09375 9.949219 13.730469 9.957031 14.453125 10.203125 C 14.675781 10.28125 15.328125 10.542969 15.605469 10.667969 C 17.046875 11.3125 18.34375 13.167969 18.605469 14.953125 C 19.210938 19.117188 15.203125 21.632812 10.121094 20.285156 C 9.839844 20.210938 9.480469 20.117188 9.328125 20.078125 C 9.171875 20.039062 8.933594 19.957031 8.796875 19.898438 C 8.492188 19.769531 8.496094 19.777344 8.882812 20.40625 C 9.589844 21.558594 11.523438 23.011719 12.660156 23.242188 C 12.785156 23.265625 13.121094 23.339844 13.402344 23.402344 C 15.027344 23.765625 16.96875 23.34375 18.234375 22.359375 C 21.160156 20.082031 21.746094 16.371094 19.925781 11.640625 C 19.753906 11.199219 19.632812 10.808594 19.652344 10.777344 C 19.691406 10.714844 18.90625 9.113281 18.777344 8.980469 C 18.738281 8.941406 18.707031 8.878906 18.707031 8.84375 C 18.707031 8.804688 18.621094 8.652344 18.519531 8.5 C 18.414062 8.347656 18.242188 8.050781 18.128906 7.835938 C 17.953125 7.488281 17.65625 7.019531 17.234375 6.417969 C 17.15625 6.304688 17.054688 6.136719 17.007812 6.050781 C 16.964844 5.960938 16.878906 5.835938 16.816406 5.769531 C 16.757812 5.703125 16.707031 5.636719 16.707031 5.617188 C 16.707031 5.585938 16.574219 5.402344 16.359375 5.128906 C 16.183594 4.902344 16 4.648438 15.914062 4.507812 C 15.8125 4.34375 14.667969 2.898438 14.507812 2.734375 C 14.464844 2.6875 14.359375 2.558594 14.277344 2.445312 C 14.195312 2.335938 14.0625 2.1875 13.984375 2.121094 C 13.902344 2.058594 13.835938 1.976562 13.835938 1.941406 C 13.835938 1.90625 13.761719 1.796875 13.667969 1.699219 C 13.574219 1.601562 13.425781 1.417969 13.339844 1.289062 C 13.253906 1.160156 13.042969 0.90625 12.871094 0.722656 C 12.699219 0.539062 12.558594 0.363281 12.554688 0.335938 C 12.546875 0.101562 12.191406 0 12.066406 0.191406 M 82.648438 5.496094 C 82.628906 5.515625 82.613281 9.785156 82.613281 14.984375 L 82.613281 24.433594 L 83.679688 24.421875 L 84.742188 24.40625 L 84.742188 5.488281 L 83.714844 5.476562 C 83.148438 5.46875 82.667969 5.476562 82.648438 5.496094 M 104.535156 6.0625 C 104.515625 6.082031 104.5 7.175781 104.5 8.488281 L 104.5 10.875 L 103.128906 10.886719 L 101.757812 10.902344 L 101.742188 11.816406 L 101.730469 12.730469 L 104.5 12.730469 L 104.5 24.433594 L 106.601562 24.433594 L 106.601562 12.730469 L 109.675781 12.730469 L 109.675781 10.875 L 106.601562 10.875 L 106.585938 8.464844 L 106.574219 6.054688 L 105.570312 6.042969 C 105.019531 6.035156 104.554688 6.042969 104.535156 6.0625 M 24.292969 15.464844 L 24.292969 24.4375 L 28.585938 24.421875 C 33.519531 24.402344 33.402344 24.414062 34.746094 23.886719 C 36.605469 23.15625 38.085938 21.757812 39.050781 19.820312 C 39.25 19.421875 39.410156 19.066406 39.410156 19.03125 C 39.410156 18.992188 39.480469 18.746094 39.566406 18.480469 C 40.085938 16.882812 40.105469 14.246094 39.613281 12.644531 C 39.527344 12.367188 39.4375 12.054688 39.410156 11.949219 C 39.34375 11.691406 38.859375 10.710938 38.613281 10.339844 C 38.503906 10.171875 38.382812 9.988281 38.351562 9.929688 C 38.070312 9.453125 36.789062 8.171875 36.375 7.957031 C 36.28125 7.910156 36.195312 7.855469 36.183594 7.835938 C 36.144531 7.78125 35.570312 7.421875 35.523438 7.421875 C 35.5 7.421875 35.261719 7.320312 34.996094 7.195312 C 33.65625 6.5625 33.015625 6.496094 28.246094 6.496094 L 24.292969 6.496094 L 24.292969 15.464844 M 32.328125 8.558594 C 34.050781 8.734375 35.382812 9.496094 36.441406 10.910156 C 36.636719 11.167969 36.796875 11.390625 36.796875 11.402344 C 36.796875 11.414062 36.898438 11.605469 37.023438 11.828125 C 37.976562 13.503906 38.136719 16.214844 37.410156 18.257812 C 37.015625 19.363281 36.125 20.648438 35.375 21.199219 C 35.285156 21.261719 35.113281 21.386719 34.992188 21.476562 C 34.578125 21.777344 33.863281 22.101562 33.285156 22.25 L 32.722656 22.394531 L 26.394531 22.425781 L 26.394531 8.503906 L 29.105469 8.503906 C 30.59375 8.503906 32.046875 8.527344 32.328125 8.558594 M 48.714844 10.726562 C 48.21875 10.808594 47.410156 11.109375 47.0625 11.335938 C 46.925781 11.421875 46.730469 11.539062 46.625 11.597656 C 46.101562 11.886719 45.1875 12.992188 44.878906 13.710938 C 44.808594 13.878906 44.800781 13.773438 44.796875 12.382812 L 44.792969 10.875 L 42.691406 10.875 L 42.691406 24.433594 L 44.789062 24.433594 L 44.808594 20.941406 C 44.828125 17.105469 44.8125 17.320312 45.164062 16.253906 C 45.859375 14.164062 47.589844 12.785156 49.511719 12.785156 L 49.867188 12.785156 L 49.867188 10.671875 L 49.417969 10.675781 C 49.171875 10.679688 48.855469 10.703125 48.714844 10.726562 M 56.246094 10.75 C 52.855469 11.378906 50.789062 14.011719 50.789062 17.703125 C 50.789062 20.054688 51.632812 21.910156 53.351562 23.351562 C 55.125 24.839844 58.671875 25.109375 60.75 23.914062 C 60.941406 23.800781 61.109375 23.710938 61.125 23.710938 C 61.199219 23.710938 62.03125 23.003906 62.351562 22.671875 C 63.917969 21.035156 64.554688 18.296875 63.96875 15.746094 C 63.484375 13.65625 61.972656 11.796875 60.246094 11.171875 C 58.988281 10.714844 57.359375 10.542969 56.246094 10.75 M 72.390625 10.75 C 71.8125 10.851562 70.957031 11.140625 70.597656 11.359375 C 70.425781 11.460938 70.207031 11.589844 70.109375 11.644531 C 69.90625 11.761719 69.300781 12.335938 69.015625 12.675781 L 68.828125 12.90625 L 68.828125 10.875 L 66.726562 10.875 L 66.726562 29.792969 L 68.828125 29.792969 L 68.832031 26.09375 L 68.832031 22.398438 L 69.019531 22.628906 C 69.472656 23.183594 70.011719 23.632812 70.726562 24.058594 C 72.132812 24.902344 75.046875 24.851562 76.617188 23.957031 C 76.773438 23.871094 76.980469 23.753906 77.082031 23.699219 C 77.957031 23.207031 78.980469 21.96875 79.511719 20.765625 C 80.320312 18.929688 80.308594 16.246094 79.484375 14.5 C 79.375 14.265625 79.285156 14.0625 79.285156 14.046875 C 79.285156 13.976562 78.65625 13.085938 78.378906 12.765625 C 77 11.152344 74.613281 10.351562 72.390625 10.75 M 92.890625 10.726562 C 92.535156 10.78125 91.816406 10.960938 91.683594 11.03125 C 91.632812 11.058594 91.546875 11.082031 91.488281 11.082031 C 91.394531 11.082031 90.972656 11.289062 90.386719 11.617188 C 89.78125 11.957031 88.773438 12.945312 88.414062 13.558594 C 87.203125 15.613281 86.972656 18.148438 87.785156 20.414062 C 88.4375 22.222656 90.011719 23.757812 91.789062 24.304688 C 93.742188 24.910156 96.023438 24.753906 97.449219 23.917969 C 97.640625 23.804688 97.808594 23.710938 97.824219 23.710938 C 98.011719 23.710938 99.578125 22.121094 99.578125 21.933594 C 99.578125 21.910156 99.640625 21.808594 99.714844 21.710938 C 99.878906 21.496094 100.300781 20.566406 100.265625 20.507812 C 100.25 20.484375 99.746094 20.464844 99.148438 20.464844 L 98.054688 20.464844 L 97.910156 20.683594 C 96.902344 22.183594 95.964844 22.6875 94.171875 22.695312 C 92.453125 22.707031 91.3125 22.144531 90.355469 20.820312 C 89.953125 20.269531 89.484375 19.078125 89.484375 18.625 L 89.484375 18.503906 L 100.65625 18.503906 L 100.65625 17.496094 C 100.65625 16.207031 100.589844 15.84375 100.144531 14.640625 C 100.003906 14.261719 99.460938 13.289062 99.34375 13.207031 C 99.316406 13.1875 99.226562 13.078125 99.140625 12.964844 C 98.839844 12.558594 98.105469 11.917969 97.554688 11.589844 C 96.296875 10.835938 94.46875 10.496094 92.890625 10.726562 M 115.210938 10.722656 C 112.792969 11.054688 111.457031 12.160156 111.25 14 C 111.109375 15.285156 111.433594 16.285156 112.175781 16.84375 C 112.28125 16.921875 112.421875 17.035156 112.492188 17.097656 C 112.921875 17.488281 114.351562 18.015625 115.824219 18.320312 C 117.027344 18.574219 117.234375 18.621094 117.796875 18.796875 C 118.664062 19.0625 118.667969 19.0625 119.117188 19.3125 C 119.789062 19.683594 120.050781 20.03125 120.113281 20.628906 C 120.21875 21.652344 119.371094 22.488281 118.003906 22.710938 C 115.253906 23.152344 113.46875 22.328125 113.085938 20.441406 L 113.023438 20.128906 L 111.9375 20.113281 L 110.855469 20.101562 L 110.855469 20.285156 C 110.855469 20.601562 111.007812 21.25 111.164062 21.589844 C 111.246094 21.769531 111.316406 21.941406 111.316406 21.96875 C 111.316406 22.359375 112.582031 23.546875 113.507812 24.019531 C 115.242188 24.90625 118.566406 24.875 120.179688 23.957031 C 120.335938 23.871094 120.539062 23.753906 120.632812 23.703125 C 120.796875 23.609375 121.101562 23.347656 121.335938 23.105469 C 122.195312 22.210938 122.472656 20.53125 121.972656 19.234375 C 121.714844 18.550781 120.832031 17.746094 119.992188 17.425781 C 119.855469 17.371094 119.574219 17.261719 119.363281 17.175781 C 119.148438 17.09375 118.816406 16.984375 118.617188 16.9375 C 117.761719 16.738281 116.394531 16.433594 116.148438 16.390625 C 115.027344 16.199219 113.644531 15.492188 113.453125 15.011719 C 113.023438 13.929688 113.769531 12.773438 115.003906 12.605469 C 117.644531 12.242188 119.367188 12.90625 119.644531 14.398438 L 119.679688 14.585938 L 120.75 14.585938 C 121.378906 14.585938 121.820312 14.566406 121.820312 14.539062 C 121.820312 13.628906 120.898438 12.054688 120.105469 11.617188 C 120.046875 11.585938 119.867188 11.476562 119.703125 11.375 C 119.398438 11.1875 118.703125 10.941406 118.054688 10.792969 C 117.632812 10.695312 115.742188 10.648438 115.210938 10.722656 M 11.859375 12.191406 C 11.351562 12.304688 10.660156 12.601562 10.207031 12.902344 C 9.78125 13.183594 9.132812 13.707031 9.125 13.773438 C 9.125 13.792969 9.011719 13.957031 8.878906 14.132812 C 8.664062 14.421875 8.378906 14.953125 8.125 15.527344 C 7.996094 15.824219 7.894531 16.558594 7.894531 17.199219 C 7.890625 17.878906 7.871094 17.851562 8.609375 18.136719 C 8.847656 18.230469 9.113281 18.339844 9.199219 18.378906 C 9.285156 18.417969 9.492188 18.472656 9.660156 18.503906 C 9.828125 18.53125 10.246094 18.601562 10.582031 18.660156 C 12.410156 18.976562 13.902344 18.835938 14.976562 18.242188 C 15.175781 18.132812 15.347656 18.042969 15.363281 18.042969 C 15.570312 18.042969 16.386719 17.019531 16.496094 16.621094 C 16.613281 16.203125 16.527344 14.742188 16.390625 14.742188 C 16.367188 14.742188 16.347656 14.71875 16.347656 14.691406 C 16.347656 14.597656 15.945312 13.777344 15.859375 13.6875 C 15.8125 13.640625 15.695312 13.507812 15.597656 13.394531 C 15.503906 13.277344 15.304688 13.089844 15.15625 12.972656 C 15.007812 12.855469 14.875 12.746094 14.863281 12.730469 C 14.4375 12.273438 12.816406 11.980469 11.859375 12.191406 M 58.6875 12.726562 C 59.359375 12.902344 60.730469 13.695312 60.730469 13.910156 C 60.730469 13.929688 60.828125 14.054688 60.949219 14.183594 C 61.875 15.203125 62.332031 17.515625 61.914062 19.097656 C 61.855469 19.324219 61.796875 19.566406 61.785156 19.632812 C 61.769531 19.699219 61.691406 19.894531 61.605469 20.070312 C 60.632812 22.074219 59.089844 22.914062 56.8125 22.6875 C 55.609375 22.570312 54.222656 21.707031 53.742188 20.777344 C 53.703125 20.703125 53.589844 20.5 53.488281 20.324219 C 52.921875 19.328125 52.734375 17.492188 53.070312 16.210938 C 53.144531 15.929688 53.226562 15.621094 53.25 15.527344 C 53.339844 15.15625 53.996094 14.140625 54.375 13.78125 C 55.425781 12.785156 57.214844 12.347656 58.6875 12.726562 M 74.53125 12.730469 C 77.074219 13.402344 78.507812 16.132812 77.859375 19.074219 C 77.363281 21.316406 75.628906 22.699219 73.3125 22.699219 C 70.515625 22.699219 68.753906 20.75 68.753906 17.65625 C 68.753906 15.113281 70.035156 13.261719 72.1875 12.703125 C 72.621094 12.589844 74.0625 12.609375 74.53125 12.730469 M 95.1875 12.730469 C 96.460938 13.058594 97.578125 14.019531 98.113281 15.25 C 98.289062 15.652344 98.503906 16.332031 98.503906 16.480469 C 98.503906 16.535156 97.605469 16.546875 93.988281 16.546875 C 89.714844 16.546875 89.476562 16.542969 89.5 16.457031 C 89.515625 16.40625 89.554688 16.261719 89.585938 16.132812 C 90.011719 14.390625 91.214844 13.140625 92.890625 12.703125 C 93.316406 12.59375 94.714844 12.609375 95.1875 12.730469 "/>
<path style=" stroke:none;fill-rule:evenodd;fill:rgb(42.352941%,67.45098%,75.294118%);fill-opacity:1;" d="M 12.332031 10.039062 C 12.320312 10.058594 12.558594 10.078125 12.863281 10.078125 C 13.167969 10.078125 13.40625 10.058594 13.394531 10.039062 C 13.382812 10.015625 13.140625 10 12.863281 10 C 12.585938 10 12.347656 10.015625 12.332031 10.039062 M 11.53125 10.15625 C 11.445312 10.1875 11.488281 10.191406 11.660156 10.171875 C 11.800781 10.15625 11.925781 10.132812 11.9375 10.121094 C 11.976562 10.085938 11.660156 10.113281 11.53125 10.15625 M 9.132812 11.15625 C 8.894531 11.324219 8.859375 11.375 9.0625 11.257812 C 9.15625 11.203125 9.257812 11.132812 9.285156 11.09375 C 9.363281 11.003906 9.328125 11.019531 9.132812 11.15625 M 19.832031 11.300781 C 19.832031 11.363281 20.1875 12.238281 20.191406 12.179688 C 20.191406 12.144531 20.121094 11.9375 20.035156 11.714844 C 19.886719 11.339844 19.832031 11.230469 19.832031 11.300781 M 8.019531 12.074219 L 7.714844 12.398438 L 8.035156 12.089844 C 8.332031 11.804688 8.378906 11.753906 8.339844 11.753906 C 8.332031 11.753906 8.1875 11.898438 8.019531 12.074219 M 12.671875 12.046875 C 12.75 12.058594 12.875 12.058594 12.953125 12.046875 C 13.03125 12.035156 12.96875 12.027344 12.8125 12.027344 C 12.65625 12.027344 12.59375 12.035156 12.671875 12.046875 M 11.824219 12.136719 C 11.660156 12.171875 11.511719 12.21875 11.492188 12.242188 C 11.472656 12.261719 11.5 12.269531 11.558594 12.25 C 11.652344 12.222656 12.117188 12.136719 12.402344 12.09375 C 12.472656 12.085938 12.4375 12.074219 12.324219 12.074219 C 12.214844 12.074219 11.988281 12.101562 11.824219 12.136719 M 13.53125 12.15625 C 13.769531 12.210938 13.972656 12.246094 13.984375 12.238281 C 14.015625 12.210938 13.605469 12.113281 13.34375 12.085938 C 13.179688 12.070312 13.246094 12.09375 13.53125 12.15625 M 17.785156 12.789062 C 17.785156 12.835938 18.042969 13.300781 18.070312 13.300781 C 18.082031 13.300781 18.046875 13.210938 17.992188 13.105469 C 17.871094 12.875 17.785156 12.746094 17.785156 12.789062 M 15.453125 13.195312 C 15.621094 13.367188 15.769531 13.503906 15.78125 13.503906 C 15.796875 13.503906 15.671875 13.367188 15.503906 13.195312 C 15.335938 13.027344 15.1875 12.886719 15.171875 12.886719 C 15.160156 12.886719 15.285156 13.027344 15.453125 13.195312 M 9.5625 13.277344 C 9.375 13.433594 9.226562 13.574219 9.226562 13.589844 C 9.226562 13.613281 9.398438 13.472656 9.914062 13.03125 C 9.941406 13.007812 9.949219 12.988281 9.929688 12.988281 C 9.910156 12.988281 9.746094 13.117188 9.5625 13.277344 M 18.125 13.453125 C 18.140625 13.523438 18.199219 13.675781 18.253906 13.789062 C 18.304688 13.902344 18.332031 13.9375 18.3125 13.867188 C 18.296875 13.796875 18.238281 13.644531 18.1875 13.53125 C 18.132812 13.417969 18.105469 13.382812 18.125 13.453125 M 6.609375 14.082031 C 6.609375 14.097656 6.578125 14.195312 6.535156 14.296875 C 6.492188 14.402344 6.46875 14.484375 6.480469 14.484375 C 6.523438 14.484375 6.667969 14.109375 6.636719 14.082031 C 6.621094 14.066406 6.609375 14.066406 6.609375 14.082031 M 8.640625 14.34375 C 8.441406 14.65625 8.1875 15.15625 8.222656 15.15625 C 8.238281 15.15625 8.3125 15.03125 8.386719 14.882812 C 8.460938 14.734375 8.597656 14.492188 8.691406 14.34375 C 8.789062 14.195312 8.855469 14.070312 8.839844 14.070312 C 8.824219 14.070312 8.738281 14.195312 8.640625 14.34375 M 6.367188 14.726562 C 6.289062 14.976562 6.328125 15.011719 6.40625 14.769531 C 6.441406 14.664062 6.457031 14.570312 6.445312 14.558594 C 6.433594 14.546875 6.398438 14.621094 6.367188 14.726562 M 6.226562 15.15625 C 6.207031 15.242188 6.203125 15.328125 6.214844 15.339844 C 6.226562 15.351562 6.253906 15.289062 6.273438 15.199219 C 6.316406 14.984375 6.273438 14.941406 6.226562 15.15625 M 20.949219 15.617188 C 20.964844 15.917969 20.984375 16.167969 20.992188 16.179688 C 21.027344 16.222656 21.003906 15.542969 20.964844 15.308594 C 20.9375 15.15625 20.929688 15.265625 20.949219 15.617188 M 6.132812 15.527344 C 6.117188 15.59375 6.089844 15.785156 6.074219 15.957031 C 6.050781 16.226562 6.058594 16.214844 6.121094 15.851562 C 6.191406 15.460938 6.199219 15.265625 6.132812 15.527344 M 20.96875 17.035156 C 20.933594 17.488281 20.894531 17.941406 20.882812 18.042969 L 20.863281 18.222656 L 20.910156 18.042969 C 20.96875 17.8125 21.082031 16.511719 21.054688 16.339844 C 21.046875 16.269531 21.007812 16.582031 20.96875 17.035156 M 16.207031 17.246094 C 16.144531 17.34375 16.101562 17.421875 16.113281 17.421875 C 16.148438 17.421875 16.363281 17.109375 16.339844 17.089844 C 16.332031 17.078125 16.269531 17.148438 16.207031 17.246094 M 18.328125 17.429688 C 18.277344 17.574219 18.246094 17.699219 18.257812 17.710938 C 18.269531 17.722656 18.320312 17.613281 18.371094 17.46875 C 18.421875 17.328125 18.453125 17.203125 18.441406 17.191406 C 18.429688 17.179688 18.378906 17.289062 18.328125 17.429688 M 15.886719 17.667969 L 15.707031 17.859375 L 15.898438 17.683594 C 16.007812 17.585938 16.09375 17.5 16.09375 17.488281 C 16.09375 17.449219 16.050781 17.488281 15.886719 17.667969 M 6.058594 17.859375 C 6.0625 17.972656 6.070312 18.015625 6.082031 17.949219 C 6.097656 17.886719 6.09375 17.792969 6.082031 17.746094 C 6.070312 17.695312 6.058594 17.746094 6.058594 17.859375 M 18.066406 18.019531 C 17.992188 18.148438 17.9375 18.265625 17.945312 18.273438 C 17.957031 18.285156 18.03125 18.179688 18.109375 18.039062 C 18.289062 17.71875 18.25 17.703125 18.066406 18.019531 M 15.222656 18.148438 C 15.136719 18.21875 15.128906 18.238281 15.195312 18.199219 C 15.363281 18.113281 15.457031 18.042969 15.402344 18.042969 C 15.371094 18.042969 15.292969 18.089844 15.222656 18.148438 M 6.101562 18.171875 C 6.097656 18.316406 6.292969 19.117188 6.359375 19.21875 C 6.40625 19.292969 6.410156 19.289062 6.378906 19.199219 C 6.359375 19.144531 6.292969 18.867188 6.226562 18.582031 C 6.160156 18.300781 6.105469 18.113281 6.101562 18.171875 M 10.6875 18.734375 C 10.882812 18.773438 11.285156 18.820312 11.582031 18.839844 C 11.878906 18.855469 12.234375 18.878906 12.375 18.890625 C 12.558594 18.90625 12.597656 18.898438 12.503906 18.867188 C 12.433594 18.84375 12.191406 18.820312 11.96875 18.816406 C 11.742188 18.8125 11.40625 18.789062 11.222656 18.765625 C 10.488281 18.667969 10.289062 18.65625 10.6875 18.734375 M 13.8125 18.710938 C 13.746094 18.738281 13.738281 18.753906 13.785156 18.753906 C 13.828125 18.753906 13.910156 18.734375 13.964844 18.710938 C 14.03125 18.683594 14.039062 18.667969 13.992188 18.667969 C 13.949219 18.667969 13.867188 18.6875 13.8125 18.710938 M 13.042969 18.8125 L 12.632812 18.847656 L 13.015625 18.851562 C 13.230469 18.851562 13.472656 18.835938 13.554688 18.8125 C 13.746094 18.765625 13.652344 18.765625 13.042969 18.8125 M 17.191406 19.136719 L 16.988281 19.355469 L 17.207031 19.152344 C 17.410156 18.960938 17.449219 18.917969 17.410156 18.917969 C 17.402344 18.917969 17.304688 19.015625 17.191406 19.136719 M 6.4375 19.433594 C 6.46875 19.550781 6.609375 19.800781 6.609375 19.738281 C 6.609375 19.722656 6.5625 19.617188 6.507812 19.507812 C 6.445312 19.390625 6.417969 19.359375 6.4375 19.433594 M 20.328125 19.820312 C 20.210938 20.074219 20.226562 20.121094 20.351562 19.878906 C 20.410156 19.769531 20.445312 19.671875 20.4375 19.660156 C 20.425781 19.648438 20.378906 19.722656 20.328125 19.820312 M 8.644531 20.152344 C 8.722656 20.292969 8.792969 20.398438 8.804688 20.386719 C 8.828125 20.367188 8.558594 19.898438 8.527344 19.898438 C 8.511719 19.898438 8.566406 20.011719 8.644531 20.152344 M 20.066406 20.324219 C 20.015625 20.414062 19.929688 20.566406 19.875 20.65625 C 19.820312 20.75 19.785156 20.824219 19.800781 20.824219 C 19.835938 20.824219 20.203125 20.199219 20.179688 20.175781 C 20.167969 20.164062 20.117188 20.230469 20.066406 20.324219 M 14.835938 20.359375 C 14.773438 20.390625 14.761719 20.40625 14.8125 20.40625 C 14.851562 20.40625 14.933594 20.386719 14.992188 20.359375 C 15.054688 20.332031 15.066406 20.316406 15.015625 20.316406 C 14.972656 20.316406 14.894531 20.335938 14.835938 20.359375 M 7.332031 21.113281 C 7.332031 21.140625 7.394531 21.230469 7.472656 21.316406 C 7.625 21.488281 7.613281 21.445312 7.441406 21.21875 C 7.378906 21.136719 7.328125 21.089844 7.332031 21.113281 M 19.089844 21.664062 L 18.78125 21.984375 L 19.101562 21.675781 C 19.402344 21.390625 19.445312 21.339844 19.410156 21.339844 C 19.402344 21.339844 19.257812 21.484375 19.089844 21.664062 M 7.894531 21.820312 C 7.894531 21.828125 7.96875 21.90625 8.058594 21.988281 L 8.226562 22.140625 L 8.074219 21.972656 C 7.933594 21.816406 7.894531 21.78125 7.894531 21.820312 M 10.046875 21.816406 C 10.046875 21.828125 10.121094 21.890625 10.210938 21.960938 C 10.316406 22.035156 10.351562 22.046875 10.304688 21.992188 C 10.238281 21.90625 10.046875 21.78125 10.046875 21.816406 M 11.738281 22.9375 C 11.835938 22.992188 11.9375 23.035156 11.96875 23.035156 C 11.996094 23.035156 11.9375 22.992188 11.839844 22.9375 C 11.738281 22.882812 11.636719 22.839844 11.609375 22.839844 C 11.578125 22.839844 11.636719 22.882812 11.738281 22.9375 M 13.820312 24.496094 C 13.832031 24.519531 13.898438 24.535156 13.964844 24.535156 C 14.03125 24.535156 14.097656 24.519531 14.113281 24.496094 C 14.125 24.476562 14.058594 24.457031 13.964844 24.457031 C 13.871094 24.457031 13.808594 24.476562 13.820312 24.496094 "/>
<path style=" stroke:none;fill-rule:evenodd;fill:rgb(42.352941%,32.941176%,76.862745%);fill-opacity:1;" d="M 24.265625 15.488281 C 24.265625 20.394531 24.273438 22.394531 24.28125 19.929688 C 24.285156 17.46875 24.285156 13.457031 24.28125 11.015625 C 24.273438 8.570312 24.265625 10.585938 24.265625 15.488281 "/>
<path style=" stroke:none;fill-rule:evenodd;fill:rgb(43.921569%,32.941176%,51.764706%);fill-opacity:1;" d="M 12.121094 10.050781 L 11.914062 10.089844 L 12.105469 10.097656 C 12.207031 10.101562 12.308594 10.078125 12.324219 10.050781 C 12.34375 10.023438 12.351562 10.003906 12.339844 10.007812 C 12.332031 10.011719 12.234375 10.03125 12.121094 10.050781 M 13.519531 10.089844 C 13.582031 10.101562 13.675781 10.101562 13.722656 10.085938 C 13.773438 10.074219 13.71875 10.0625 13.605469 10.066406 C 13.492188 10.066406 13.453125 10.074219 13.519531 10.089844 M 20.609375 13.710938 C 20.609375 13.753906 20.628906 13.835938 20.652344 13.890625 C 20.679688 13.957031 20.699219 13.964844 20.699219 13.917969 C 20.699219 13.875 20.679688 13.792969 20.652344 13.738281 C 20.625 13.671875 20.609375 13.664062 20.609375 13.710938 M 6.015625 16.984375 C 6.015625 17.382812 6.023438 17.535156 6.035156 17.332031 C 6.042969 17.125 6.042969 16.796875 6.035156 16.609375 C 6.023438 16.417969 6.015625 16.585938 6.015625 16.984375 M 7.851562 17.117188 C 7.839844 17.800781 7.851562 17.835938 8.097656 17.960938 C 8.140625 17.984375 8.109375 17.945312 8.035156 17.878906 C 7.894531 17.761719 7.894531 17.742188 7.878906 17.113281 L 7.863281 16.46875 L 7.851562 17.117188 M 18.480469 16.964844 C 18.4375 17.179688 18.480469 17.222656 18.527344 17.011719 C 18.546875 16.921875 18.550781 16.835938 18.539062 16.824219 C 18.523438 16.8125 18.5 16.875 18.480469 16.964844 M 20.789062 18.355469 C 20.746094 18.570312 20.785156 18.613281 20.832031 18.402344 C 20.851562 18.3125 20.859375 18.230469 20.84375 18.214844 C 20.832031 18.203125 20.804688 18.265625 20.789062 18.355469 M 17.550781 18.777344 L 17.398438 18.941406 L 17.566406 18.792969 C 17.65625 18.707031 17.734375 18.632812 17.734375 18.625 C 17.734375 18.585938 17.691406 18.621094 17.550781 18.777344 M 9.582031 21.367188 C 9.738281 21.523438 9.875 21.648438 9.886719 21.648438 C 9.902344 21.648438 9.789062 21.523438 9.636719 21.367188 C 9.480469 21.210938 9.34375 21.082031 9.332031 21.082031 C 9.316406 21.082031 9.429688 21.210938 9.582031 21.367188 M 13.902344 23.542969 C 13.980469 23.554688 14.105469 23.554688 14.183594 23.542969 C 14.261719 23.53125 14.199219 23.519531 14.042969 23.519531 C 13.886719 23.519531 13.824219 23.53125 13.902344 23.542969 M 15.132812 23.542969 C 15.210938 23.554688 15.324219 23.554688 15.386719 23.542969 C 15.453125 23.527344 15.386719 23.519531 15.246094 23.519531 C 15.105469 23.519531 15.054688 23.53125 15.132812 23.542969 M 12.773438 24.417969 C 12.824219 24.429688 12.902344 24.429688 12.953125 24.417969 C 13.003906 24.402344 12.960938 24.394531 12.863281 24.394531 C 12.765625 24.394531 12.726562 24.402344 12.773438 24.417969 M 14.53125 24.433594 L 14.121094 24.464844 L 14.476562 24.472656 C 14.675781 24.476562 14.929688 24.460938 15.042969 24.4375 C 15.289062 24.382812 15.152344 24.382812 14.53125 24.433594 M 13.234375 24.46875 C 13.339844 24.480469 13.515625 24.480469 13.621094 24.46875 C 13.726562 24.460938 13.640625 24.449219 13.425781 24.449219 C 13.214844 24.449219 13.128906 24.460938 13.234375 24.46875 "/>
<path style=" stroke:none;fill-rule:evenodd;fill:rgb(25.098039%,32.941176%,51.764706%);fill-opacity:1;" d="M 9.019531 11.191406 C 8.933594 11.261719 8.925781 11.277344 8.996094 11.242188 C 9.160156 11.15625 9.253906 11.082031 9.199219 11.085938 C 9.171875 11.085938 9.089844 11.132812 9.019531 11.191406 M 8.027344 12.019531 L 7.660156 12.390625 L 8.046875 12.035156 C 8.257812 11.839844 8.441406 11.671875 8.453125 11.664062 C 8.464844 11.65625 8.457031 11.648438 8.433594 11.648438 C 8.410156 11.648438 8.226562 11.816406 8.027344 12.019531 M 12.671875 12.097656 C 12.75 12.109375 12.875 12.109375 12.953125 12.097656 C 13.03125 12.085938 12.96875 12.078125 12.8125 12.078125 C 12.65625 12.078125 12.59375 12.085938 12.671875 12.097656 M 17.699219 12.644531 C 17.777344 12.753906 17.898438 12.9375 17.964844 13.054688 C 18.035156 13.175781 18.089844 13.246094 18.089844 13.214844 C 18.089844 13.140625 17.695312 12.539062 17.613281 12.492188 C 17.582031 12.46875 17.617188 12.539062 17.699219 12.644531 M 10.261719 12.8125 C 10.113281 12.910156 9.992188 13 9.992188 13.011719 C 9.992188 13.046875 10.503906 12.722656 10.539062 12.671875 C 10.578125 12.609375 10.554688 12.617188 10.261719 12.8125 M 14.867188 12.746094 C 14.878906 12.753906 15.003906 12.847656 15.144531 12.957031 L 15.402344 13.152344 L 15.167969 12.941406 C 15.042969 12.828125 14.917969 12.730469 14.890625 12.730469 C 14.867188 12.730469 14.855469 12.738281 14.867188 12.746094 M 9.324219 13.542969 L 9.148438 13.738281 L 9.339844 13.558594 C 9.519531 13.394531 9.554688 13.351562 9.515625 13.351562 C 9.507812 13.351562 9.421875 13.4375 9.324219 13.542969 M 6.542969 14.15625 C 6.464844 14.34375 6.410156 14.503906 6.421875 14.515625 C 6.429688 14.527344 6.503906 14.382812 6.578125 14.195312 C 6.65625 14.007812 6.710938 13.84375 6.699219 13.835938 C 6.6875 13.824219 6.617188 13.96875 6.542969 14.15625 M 18.589844 15.566406 C 18.601562 16.007812 18.621094 16.390625 18.628906 16.417969 C 18.664062 16.523438 18.648438 15.171875 18.609375 14.972656 C 18.589844 14.859375 18.582031 15.125 18.589844 15.566406 M 20.871094 15.257812 C 20.871094 15.355469 20.882812 15.398438 20.894531 15.347656 C 20.90625 15.296875 20.90625 15.21875 20.894531 15.167969 C 20.882812 15.117188 20.871094 15.160156 20.871094 15.257812 M 16.570312 15.875 C 16.570312 16.117188 16.582031 16.214844 16.589844 16.09375 C 16.601562 15.976562 16.601562 15.777344 16.589844 15.65625 C 16.582031 15.535156 16.570312 15.636719 16.570312 15.875 M 20.976562 16.570312 C 20.976562 16.769531 20.988281 16.84375 21 16.738281 C 21.007812 16.632812 21.007812 16.46875 21 16.378906 C 20.988281 16.285156 20.976562 16.375 20.976562 16.570312 M 15.859375 17.640625 L 15.707031 17.808594 L 15.875 17.65625 C 15.964844 17.574219 16.042969 17.5 16.042969 17.492188 C 16.042969 17.449219 16 17.484375 15.859375 17.640625 M 20.871094 17.757812 C 20.871094 17.871094 20.882812 17.910156 20.894531 17.847656 C 20.90625 17.78125 20.90625 17.691406 20.894531 17.640625 C 20.882812 17.589844 20.871094 17.644531 20.871094 17.757812 M 17.976562 18.261719 L 17.886719 18.425781 L 17.988281 18.304688 C 18.074219 18.203125 18.121094 18.09375 18.078125 18.09375 C 18.070312 18.09375 18.023438 18.167969 17.976562 18.261719 M 9.789062 18.558594 C 9.859375 18.578125 9.964844 18.597656 10.019531 18.597656 C 10.101562 18.597656 10.09375 18.589844 9.992188 18.558594 C 9.921875 18.535156 9.820312 18.515625 9.761719 18.515625 C 9.683594 18.515625 9.6875 18.523438 9.789062 18.558594 M 6.410156 19.484375 C 6.410156 19.527344 6.441406 19.605469 6.484375 19.660156 C 6.582031 19.789062 6.582031 19.742188 6.484375 19.554688 C 6.441406 19.472656 6.40625 19.441406 6.410156 19.484375 M 16.09375 19.898438 C 15.9375 19.980469 15.828125 20.046875 15.851562 20.050781 C 15.90625 20.050781 16.398438 19.796875 16.398438 19.765625 C 16.398438 19.734375 16.40625 19.730469 16.09375 19.898438 M 6.816406 20.308594 C 6.875 20.421875 6.933594 20.515625 6.945312 20.515625 C 6.960938 20.515625 6.925781 20.421875 6.867188 20.308594 C 6.808594 20.195312 6.75 20.101562 6.738281 20.101562 C 6.722656 20.101562 6.757812 20.195312 6.816406 20.308594 M 11.417969 20.550781 C 11.480469 20.5625 11.574219 20.5625 11.621094 20.550781 C 11.671875 20.539062 11.617188 20.527344 11.503906 20.527344 C 11.394531 20.527344 11.351562 20.539062 11.417969 20.550781 M 19.371094 21.289062 C 19.285156 21.402344 19.222656 21.496094 19.234375 21.496094 C 19.25 21.496094 19.335938 21.402344 19.425781 21.289062 C 19.511719 21.175781 19.574219 21.082031 19.558594 21.082031 C 19.546875 21.082031 19.460938 21.175781 19.371094 21.289062 M 18.808594 21.882812 C 18.683594 22.007812 18.59375 22.113281 18.609375 22.113281 C 18.621094 22.113281 18.734375 22.007812 18.859375 21.882812 C 18.984375 21.753906 19.074219 21.648438 19.0625 21.648438 C 19.046875 21.648438 18.933594 21.753906 18.808594 21.882812 M 7.839844 21.820312 C 7.839844 21.828125 7.917969 21.90625 8.007812 21.988281 L 8.175781 22.140625 L 8.023438 21.972656 C 7.882812 21.816406 7.839844 21.78125 7.839844 21.820312 M 18.296875 22.300781 C 17.96875 22.558594 17.921875 22.625 18.207031 22.421875 C 18.425781 22.269531 18.601562 22.109375 18.546875 22.117188 C 18.535156 22.117188 18.421875 22.199219 18.296875 22.300781 M 11.046875 22.53125 C 11.082031 22.585938 11.484375 22.796875 11.507812 22.773438 C 11.515625 22.765625 11.410156 22.695312 11.273438 22.621094 C 11.132812 22.546875 11.03125 22.507812 11.046875 22.53125 M 12.785156 23.300781 C 12.84375 23.324219 12.925781 23.34375 12.964844 23.34375 C 13.015625 23.34375 13.003906 23.328125 12.941406 23.300781 C 12.882812 23.273438 12.804688 23.253906 12.761719 23.253906 C 12.710938 23.253906 12.722656 23.269531 12.785156 23.300781 M 16.296875 23.300781 C 16.195312 23.332031 16.191406 23.339844 16.273438 23.34375 C 16.328125 23.34375 16.421875 23.324219 16.476562 23.300781 C 16.609375 23.242188 16.472656 23.242188 16.296875 23.300781 M 13.265625 23.414062 C 13.292969 23.441406 13.367188 23.453125 13.433594 23.441406 C 13.535156 23.425781 13.53125 23.417969 13.386719 23.394531 C 13.285156 23.378906 13.238281 23.386719 13.265625 23.414062 M 15.863281 23.402344 L 15.707031 23.441406 L 15.847656 23.449219 C 15.921875 23.449219 16 23.429688 16.015625 23.402344 C 16.03125 23.375 16.039062 23.351562 16.03125 23.355469 C 16.023438 23.359375 15.945312 23.378906 15.863281 23.402344 M 14.332031 23.570312 C 14.34375 23.589844 14.492188 23.609375 14.65625 23.609375 C 14.824219 23.609375 14.96875 23.589844 14.984375 23.570312 C 14.996094 23.546875 14.847656 23.53125 14.65625 23.53125 C 14.464844 23.53125 14.320312 23.546875 14.332031 23.570312 M 11.316406 25.039062 C 11.40625 25.046875 11.542969 25.046875 11.621094 25.035156 C 11.699219 25.023438 11.625 25.015625 11.453125 25.015625 C 11.285156 25.015625 11.222656 25.027344 11.316406 25.039062 M 12.851562 25.039062 C 12.945312 25.046875 13.082031 25.046875 13.160156 25.035156 C 13.238281 25.023438 13.160156 25.015625 12.992188 25.015625 C 12.824219 25.015625 12.757812 25.027344 12.851562 25.039062 "/>
<path style=" stroke:none;fill-rule:evenodd;fill:rgb(25.098039%,32.941176%,51.764706%);fill-opacity:1;" d="M 9.019531 11.191406 C 8.933594 11.261719 8.925781 11.277344 8.996094 11.242188 C 9.160156 11.15625 9.253906 11.082031 9.199219 11.085938 C 9.171875 11.085938 9.089844 11.132812 9.019531 11.191406 M 8.027344 12.019531 L 7.660156 12.390625 L 8.046875 12.035156 C 8.257812 11.839844 8.441406 11.671875 8.453125 11.664062 C 8.464844 11.65625 8.457031 11.648438 8.433594 11.648438 C 8.410156 11.648438 8.226562 11.816406 8.027344 12.019531 M 12.671875 12.097656 C 12.75 12.109375 12.875 12.109375 12.953125 12.097656 C 13.03125 12.085938 12.96875 12.078125 12.8125 12.078125 C 12.65625 12.078125 12.59375 12.085938 12.671875 12.097656 M 17.699219 12.644531 C 17.777344 12.753906 17.898438 12.9375 17.964844 13.054688 C 18.035156 13.175781 18.089844 13.246094 18.089844 13.214844 C 18.089844 13.140625 17.695312 12.539062 17.613281 12.492188 C 17.582031 12.46875 17.617188 12.539062 17.699219 12.644531 M 10.261719 12.8125 C 10.113281 12.910156 9.992188 13 9.992188 13.011719 C 9.992188 13.046875 10.503906 12.722656 10.539062 12.671875 C 10.578125 12.609375 10.554688 12.617188 10.261719 12.8125 M 14.867188 12.746094 C 14.878906 12.753906 15.003906 12.847656 15.144531 12.957031 L 15.402344 13.152344 L 15.167969 12.941406 C 15.042969 12.828125 14.917969 12.730469 14.890625 12.730469 C 14.867188 12.730469 14.855469 12.738281 14.867188 12.746094 M 9.324219 13.542969 L 9.148438 13.738281 L 9.339844 13.558594 C 9.519531 13.394531 9.554688 13.351562 9.515625 13.351562 C 9.507812 13.351562 9.421875 13.4375 9.324219 13.542969 M 6.542969 14.15625 C 6.464844 14.34375 6.410156 14.503906 6.421875 14.515625 C 6.429688 14.527344 6.503906 14.382812 6.578125 14.195312 C 6.65625 14.007812 6.710938 13.84375 6.699219 13.835938 C 6.6875 13.824219 6.617188 13.96875 6.542969 14.15625 M 18.589844 15.566406 C 18.601562 16.007812 18.621094 16.390625 18.628906 16.417969 C 18.664062 16.523438 18.648438 15.171875 18.609375 14.972656 C 18.589844 14.859375 18.582031 15.125 18.589844 15.566406 M 20.871094 15.257812 C 20.871094 15.355469 20.882812 15.398438 20.894531 15.347656 C 20.90625 15.296875 20.90625 15.21875 20.894531 15.167969 C 20.882812 15.117188 20.871094 15.160156 20.871094 15.257812 M 16.570312 15.875 C 16.570312 16.117188 16.582031 16.214844 16.589844 16.09375 C 16.601562 15.976562 16.601562 15.777344 16.589844 15.65625 C 16.582031 15.535156 16.570312 15.636719 16.570312 15.875 M 20.976562 16.570312 C 20.976562 16.769531 20.988281 16.84375 21 16.738281 C 21.007812 16.632812 21.007812 16.46875 21 16.378906 C 20.988281 16.285156 20.976562 16.375 20.976562 16.570312 M 15.859375 17.640625 L 15.707031 17.808594 L 15.875 17.65625 C 15.964844 17.574219 16.042969 17.5 16.042969 17.492188 C 16.042969 17.449219 16 17.484375 15.859375 17.640625 M 20.871094 17.757812 C 20.871094 17.871094 20.882812 17.910156 20.894531 17.847656 C 20.90625 17.78125 20.90625 17.691406 20.894531 17.640625 C 20.882812 17.589844 20.871094 17.644531 20.871094 17.757812 M 17.976562 18.261719 L 17.886719 18.425781 L 17.988281 18.304688 C 18.074219 18.203125 18.121094 18.09375 18.078125 18.09375 C 18.070312 18.09375 18.023438 18.167969 17.976562 18.261719 M 9.789062 18.558594 C 9.859375 18.578125 9.964844 18.597656 10.019531 18.597656 C 10.101562 18.597656 10.09375 18.589844 9.992188 18.558594 C 9.921875 18.535156 9.820312 18.515625 9.761719 18.515625 C 9.683594 18.515625 9.6875 18.523438 9.789062 18.558594 M 6.410156 19.484375 C 6.410156 19.527344 6.441406 19.605469 6.484375 19.660156 C 6.582031 19.789062 6.582031 19.742188 6.484375 19.554688 C 6.441406 19.472656 6.40625 19.441406 6.410156 19.484375 M 16.09375 19.898438 C 15.9375 19.980469 15.828125 20.046875 15.851562 20.050781 C 15.90625 20.050781 16.398438 19.796875 16.398438 19.765625 C 16.398438 19.734375 16.40625 19.730469 16.09375 19.898438 M 6.816406 20.308594 C 6.875 20.421875 6.933594 20.515625 6.945312 20.515625 C 6.960938 20.515625 6.925781 20.421875 6.867188 20.308594 C 6.808594 20.195312 6.75 20.101562 6.738281 20.101562 C 6.722656 20.101562 6.757812 20.195312 6.816406 20.308594 M 11.417969 20.550781 C 11.480469 20.5625 11.574219 20.5625 11.621094 20.550781 C 11.671875 20.539062 11.617188 20.527344 11.503906 20.527344 C 11.394531 20.527344 11.351562 20.539062 11.417969 20.550781 M 19.371094 21.289062 C 19.285156 21.402344 19.222656 21.496094 19.234375 21.496094 C 19.25 21.496094 19.335938 21.402344 19.425781 21.289062 C 19.511719 21.175781 19.574219 21.082031 19.558594 21.082031 C 19.546875 21.082031 19.460938 21.175781 19.371094 21.289062 M 18.808594 21.882812 C 18.683594 22.007812 18.59375 22.113281 18.609375 22.113281 C 18.621094 22.113281 18.734375 22.007812 18.859375 21.882812 C 18.984375 21.753906 19.074219 21.648438 19.0625 21.648438 C 19.046875 21.648438 18.933594 21.753906 18.808594 21.882812 M 7.839844 21.820312 C 7.839844 21.828125 7.917969 21.90625 8.007812 21.988281 L 8.175781 22.140625 L 8.023438 21.972656 C 7.882812 21.816406 7.839844 21.78125 7.839844 21.820312 M 18.296875 22.300781 C 17.96875 22.558594 17.921875 22.625 18.207031 22.421875 C 18.425781 22.269531 18.601562 22.109375 18.546875 22.117188 C 18.535156 22.117188 18.421875 22.199219 18.296875 22.300781 M 11.046875 22.53125 C 11.082031 22.585938 11.484375 22.796875 11.507812 22.773438 C 11.515625 22.765625 11.410156 22.695312 11.273438 22.621094 C 11.132812 22.546875 11.03125 22.507812 11.046875 22.53125 M 12.785156 23.300781 C 12.84375 23.324219 12.925781 23.34375 12.964844 23.34375 C 13.015625 23.34375 13.003906 23.328125 12.941406 23.300781 C 12.882812 23.273438 12.804688 23.253906 12.761719 23.253906 C 12.710938 23.253906 12.722656 23.269531 12.785156 23.300781 M 16.296875 23.300781 C 16.195312 23.332031 16.191406 23.339844 16.273438 23.34375 C 16.328125 23.34375 16.421875 23.324219 16.476562 23.300781 C 16.609375 23.242188 16.472656 23.242188 16.296875 23.300781 M 13.265625 23.414062 C 13.292969 23.441406 13.367188 23.453125 13.433594 23.441406 C 13.535156 23.425781 13.53125 23.417969 13.386719 23.394531 C 13.285156 23.378906 13.238281 23.386719 13.265625 23.414062 M 15.863281 23.402344 L 15.707031 23.441406 L 15.847656 23.449219 C 15.921875 23.449219 16 23.429688 16.015625 23.402344 C 16.03125 23.375 16.039062 23.351562 16.03125 23.355469 C 16.023438 23.359375 15.945312 23.378906 15.863281 23.402344 M 14.332031 23.570312 C 14.34375 23.589844 14.492188 23.609375 14.65625 23.609375 C 14.824219 23.609375 14.96875 23.589844 14.984375 23.570312 C 14.996094 23.546875 14.847656 23.53125 14.65625 23.53125 C 14.464844 23.53125 14.320312 23.546875 14.332031 23.570312 M 11.316406 25.039062 C 11.40625 25.046875 11.542969 25.046875 11.621094 25.035156 C 11.699219 25.023438 11.625 25.015625 11.453125 25.015625 C 11.285156 25.015625 11.222656 25.027344 11.316406 25.039062 M 12.851562 25.039062 C 12.945312 25.046875 13.082031 25.046875 13.160156 25.035156 C 13.238281 25.023438 13.160156 25.015625 12.992188 25.015625 C 12.824219 25.015625 12.757812 25.027344 12.851562 25.039062 "/>
<path style=" stroke:none;fill-rule:evenodd;fill:rgb(25.098039%,32.941176%,51.764706%);fill-opacity:1;" d="M 9.019531 11.191406 C 8.933594 11.261719 8.925781 11.277344 8.996094 11.242188 C 9.160156 11.15625 9.253906 11.082031 9.199219 11.085938 C 9.171875 11.085938 9.089844 11.132812 9.019531 11.191406 M 8.027344 12.019531 L 7.660156 12.390625 L 8.046875 12.035156 C 8.257812 11.839844 8.441406 11.671875 8.453125 11.664062 C 8.464844 11.65625 8.457031 11.648438 8.433594 11.648438 C 8.410156 11.648438 8.226562 11.816406 8.027344 12.019531 M 12.671875 12.097656 C 12.75 12.109375 12.875 12.109375 12.953125 12.097656 C 13.03125 12.085938 12.96875 12.078125 12.8125 12.078125 C 12.65625 12.078125 12.59375 12.085938 12.671875 12.097656 M 17.699219 12.644531 C 17.777344 12.753906 17.898438 12.9375 17.964844 13.054688 C 18.035156 13.175781 18.089844 13.246094 18.089844 13.214844 C 18.089844 13.140625 17.695312 12.539062 17.613281 12.492188 C 17.582031 12.46875 17.617188 12.539062 17.699219 12.644531 M 10.261719 12.8125 C 10.113281 12.910156 9.992188 13 9.992188 13.011719 C 9.992188 13.046875 10.503906 12.722656 10.539062 12.671875 C 10.578125 12.609375 10.554688 12.617188 10.261719 12.8125 M 14.867188 12.746094 C 14.878906 12.753906 15.003906 12.847656 15.144531 12.957031 L 15.402344 13.152344 L 15.167969 12.941406 C 15.042969 12.828125 14.917969 12.730469 14.890625 12.730469 C 14.867188 12.730469 14.855469 12.738281 14.867188 12.746094 M 9.324219 13.542969 L 9.148438 13.738281 L 9.339844 13.558594 C 9.519531 13.394531 9.554688 13.351562 9.515625 13.351562 C 9.507812 13.351562 9.421875 13.4375 9.324219 13.542969 M 6.542969 14.15625 C 6.464844 14.34375 6.410156 14.503906 6.421875 14.515625 C 6.429688 14.527344 6.503906 14.382812 6.578125 14.195312 C 6.65625 14.007812 6.710938 13.84375 6.699219 13.835938 C 6.6875 13.824219 6.617188 13.96875 6.542969 14.15625 M 18.589844 15.566406 C 18.601562 16.007812 18.621094 16.390625 18.628906 16.417969 C 18.664062 16.523438 18.648438 15.171875 18.609375 14.972656 C 18.589844 14.859375 18.582031 15.125 18.589844 15.566406 M 20.871094 15.257812 C 20.871094 15.355469 20.882812 15.398438 20.894531 15.347656 C 20.90625 15.296875 20.90625 15.21875 20.894531 15.167969 C 20.882812 15.117188 20.871094 15.160156 20.871094 15.257812 M 16.570312 15.875 C 16.570312 16.117188 16.582031 16.214844 16.589844 16.09375 C 16.601562 15.976562 16.601562 15.777344 16.589844 15.65625 C 16.582031 15.535156 16.570312 15.636719 16.570312 15.875 M 20.976562 16.570312 C 20.976562 16.769531 20.988281 16.84375 21 16.738281 C 21.007812 16.632812 21.007812 16.46875 21 16.378906 C 20.988281 16.285156 20.976562 16.375 20.976562 16.570312 M 15.859375 17.640625 L 15.707031 17.808594 L 15.875 17.65625 C 15.964844 17.574219 16.042969 17.5 16.042969 17.492188 C 16.042969 17.449219 16 17.484375 15.859375 17.640625 M 20.871094 17.757812 C 20.871094 17.871094 20.882812 17.910156 20.894531 17.847656 C 20.90625 17.78125 20.90625 17.691406 20.894531 17.640625 C 20.882812 17.589844 20.871094 17.644531 20.871094 17.757812 M 17.976562 18.261719 L 17.886719 18.425781 L 17.988281 18.304688 C 18.074219 18.203125 18.121094 18.09375 18.078125 18.09375 C 18.070312 18.09375 18.023438 18.167969 17.976562 18.261719 M 9.789062 18.558594 C 9.859375 18.578125 9.964844 18.597656 10.019531 18.597656 C 10.101562 18.597656 10.09375 18.589844 9.992188 18.558594 C 9.921875 18.535156 9.820312 18.515625 9.761719 18.515625 C 9.683594 18.515625 9.6875 18.523438 9.789062 18.558594 M 6.410156 19.484375 C 6.410156 19.527344 6.441406 19.605469 6.484375 19.660156 C 6.582031 19.789062 6.582031 19.742188 6.484375 19.554688 C 6.441406 19.472656 6.40625 19.441406 6.410156 19.484375 M 16.09375 19.898438 C 15.9375 19.980469 15.828125 20.046875 15.851562 20.050781 C 15.90625 20.050781 16.398438 19.796875 16.398438 19.765625 C 16.398438 19.734375 16.40625 19.730469 16.09375 19.898438 M 6.816406 20.308594 C 6.875 20.421875 6.933594 20.515625 6.945312 20.515625 C 6.960938 20.515625 6.925781 20.421875 6.867188 20.308594 C 6.808594 20.195312 6.75 20.101562 6.738281 20.101562 C 6.722656 20.101562 6.757812 20.195312 6.816406 20.308594 M 11.417969 20.550781 C 11.480469 20.5625 11.574219 20.5625 11.621094 20.550781 C 11.671875 20.539062 11.617188 20.527344 11.503906 20.527344 C 11.394531 20.527344 11.351562 20.539062 11.417969 20.550781 M 19.371094 21.289062 C 19.285156 21.402344 19.222656 21.496094 19.234375 21.496094 C 19.25 21.496094 19.335938 21.402344 19.425781 21.289062 C 19.511719 21.175781 19.574219 21.082031 19.558594 21.082031 C 19.546875 21.082031 19.460938 21.175781 19.371094 21.289062 M 18.808594 21.882812 C 18.683594 22.007812 18.59375 22.113281 18.609375 22.113281 C 18.621094 22.113281 18.734375 22.007812 18.859375 21.882812 C 18.984375 21.753906 19.074219 21.648438 19.0625 21.648438 C 19.046875 21.648438 18.933594 21.753906 18.808594 21.882812 M 7.839844 21.820312 C 7.839844 21.828125 7.917969 21.90625 8.007812 21.988281 L 8.175781 22.140625 L 8.023438 21.972656 C 7.882812 21.816406 7.839844 21.78125 7.839844 21.820312 M 18.296875 22.300781 C 17.96875 22.558594 17.921875 22.625 18.207031 22.421875 C 18.425781 22.269531 18.601562 22.109375 18.546875 22.117188 C 18.535156 22.117188 18.421875 22.199219 18.296875 22.300781 M 11.046875 22.53125 C 11.082031 22.585938 11.484375 22.796875 11.507812 22.773438 C 11.515625 22.765625 11.410156 22.695312 11.273438 22.621094 C 11.132812 22.546875 11.03125 22.507812 11.046875 22.53125 M 12.785156 23.300781 C 12.84375 23.324219 12.925781 23.34375 12.964844 23.34375 C 13.015625 23.34375 13.003906 23.328125 12.941406 23.300781 C 12.882812 23.273438 12.804688 23.253906 12.761719 23.253906 C 12.710938 23.253906 12.722656 23.269531 12.785156 23.300781 M 16.296875 23.300781 C 16.195312 23.332031 16.191406 23.339844 16.273438 23.34375 C 16.328125 23.34375 16.421875 23.324219 16.476562 23.300781 C 16.609375 23.242188 16.472656 23.242188 16.296875 23.300781 M 13.265625 23.414062 C 13.292969 23.441406 13.367188 23.453125 13.433594 23.441406 C 13.535156 23.425781 13.53125 23.417969 13.386719 23.394531 C 13.285156 23.378906 13.238281 23.386719 13.265625 23.414062 M 15.863281 23.402344 L 15.707031 23.441406 L 15.847656 23.449219 C 15.921875 23.449219 16 23.429688 16.015625 23.402344 C 16.03125 23.375 16.039062 23.351562 16.03125 23.355469 C 16.023438 23.359375 15.945312 23.378906 15.863281 23.402344 M 14.332031 23.570312 C 14.34375 23.589844 14.492188 23.609375 14.65625 23.609375 C 14.824219 23.609375 14.96875 23.589844 14.984375 23.570312 C 14.996094 23.546875 14.847656 23.53125 14.65625 23.53125 C 14.464844 23.53125 14.320312 23.546875 14.332031 23.570312 M 11.316406 25.039062 C 11.40625 25.046875 11.542969 25.046875 11.621094 25.035156 C 11.699219 25.023438 11.625 25.015625 11.453125 25.015625 C 11.285156 25.015625 11.222656 25.027344 11.316406 25.039062 M 12.851562 25.039062 C 12.945312 25.046875 13.082031 25.046875 13.160156 25.035156 C 13.238281 25.023438 13.160156 25.015625 12.992188 25.015625 C 12.824219 25.015625 12.757812 25.027344 12.851562 25.039062 "/>
</g>
</svg>
