<svg width="20" height="20" viewBox="0 0 20 20" fill="none" xmlns="http://www.w3.org/2000/svg">
<rect x="1" y="1" width="18" height="18" stroke="#A06933" stroke-width="2"/>
<path d="M5.91113 13H4.5V7.56055L2.81543 8.08301V6.93555L5.75977 5.88086H5.91113V13ZM12.3986 13H7.52559V12.0332L9.82539 9.58203C10.1411 9.23698 10.3739 8.93587 10.5236 8.67871C10.6766 8.42155 10.7531 8.17741 10.7531 7.94629C10.7531 7.63053 10.6734 7.38314 10.5139 7.2041C10.3544 7.02181 10.1265 6.93066 9.83027 6.93066C9.51126 6.93066 9.25898 7.04134 9.07344 7.2627C8.89115 7.48079 8.8 7.76888 8.8 8.12695H7.38398C7.38398 7.69401 7.48652 7.2985 7.6916 6.94043C7.89994 6.58236 8.1929 6.30241 8.57051 6.10059C8.94811 5.89551 9.37617 5.79297 9.85469 5.79297C10.5871 5.79297 11.1551 5.96875 11.5588 6.32031C11.9657 6.67188 12.1691 7.16829 12.1691 7.80957C12.1691 8.16113 12.078 8.51921 11.8957 8.88379C11.7134 9.24837 11.4009 9.67318 10.9582 10.1582L9.34199 11.8623H12.3986V13ZM14.0033 8.82031H14.7553C15.1133 8.82031 15.3786 8.73079 15.5512 8.55176C15.7237 8.37272 15.81 8.13509 15.81 7.83887C15.81 7.55241 15.7237 7.32943 15.5512 7.16992C15.3819 7.01042 15.1475 6.93066 14.848 6.93066C14.5779 6.93066 14.3516 7.00553 14.1693 7.15527C13.987 7.30176 13.8959 7.49382 13.8959 7.73145H12.4848C12.4848 7.36035 12.584 7.02832 12.7826 6.73535C12.9844 6.43913 13.2644 6.20801 13.6225 6.04199C13.9838 5.87598 14.3809 5.79297 14.8139 5.79297C15.5658 5.79297 16.155 5.97363 16.5814 6.33496C17.0079 6.69303 17.2211 7.18783 17.2211 7.81934C17.2211 8.14486 17.1218 8.44434 16.9232 8.71777C16.7247 8.99121 16.4643 9.20117 16.142 9.34766C16.5424 9.49089 16.8402 9.70573 17.0355 9.99219C17.2341 10.2786 17.3334 10.6172 17.3334 11.0078C17.3334 11.6393 17.1023 12.1455 16.64 12.5264C16.1811 12.9072 15.5723 13.0977 14.8139 13.0977C14.1042 13.0977 13.5232 12.9105 13.0707 12.5361C12.6215 12.1618 12.3969 11.667 12.3969 11.0518H13.808C13.808 11.3187 13.9073 11.5368 14.1059 11.7061C14.3077 11.8753 14.5551 11.96 14.848 11.96C15.1833 11.96 15.4454 11.8721 15.6342 11.6963C15.8262 11.5173 15.9223 11.2812 15.9223 10.9883C15.9223 10.2786 15.5316 9.92383 14.7504 9.92383H14.0033V8.82031Z" fill="#A06933"/>
</svg>
