<svg width="33" height="29" viewBox="0 0 33 29" fill="none" xmlns="http://www.w3.org/2000/svg">
<path d="M22 7.2497C21.6353 7.2497 21.2856 7.37701 21.0277 7.60362C20.7698 7.83022 20.625 8.13757 20.625 8.45804V13.0739L20.4325 12.8926L13.42 7.80554C12.9978 7.50828 12.4891 7.32122 11.9518 7.26567C11.4146 7.21013 10.8704 7.28833 10.3812 7.49137C9.96897 7.66482 9.62103 7.93731 9.3777 8.27732C9.13436 8.61733 9.00557 9.01095 9.00623 9.41262V19.5868C9.00557 19.9884 9.13436 20.3821 9.3777 20.7221C9.62103 21.0621 9.96897 21.3346 10.3812 21.508C10.7743 21.6651 11.2007 21.7475 11.6325 21.7497C12.2833 21.7504 12.9145 21.5541 13.42 21.1939L20.4325 16.1068L20.625 15.9255V20.5414C20.625 20.8618 20.7698 21.1692 21.0277 21.3958C21.2856 21.6224 21.6353 21.7497 22 21.7497C22.3647 21.7497 22.7144 21.6224 22.9723 21.3958C23.2301 21.1692 23.375 20.8618 23.375 20.5414V8.45804C23.375 8.13757 23.2301 7.83022 22.9723 7.60362C22.7144 7.37701 22.3647 7.2497 22 7.2497ZM11.6875 19.2243V9.66637L18.315 14.4997L11.6875 19.2243Z" fill="#A06933"/>
</svg>