<svg width="20" height="16" viewBox="0 0 20 16" fill="none" xmlns="http://www.w3.org/2000/svg">
<path fill-rule="evenodd" clip-rule="evenodd" d="M7 5.48999L7 10.8C5.833 11.711 6.59999 11.1339 3.17899 13.6609C2.84698 13.8999 2 13.719 2 13.252C2 0.104953 0.966 0.91899 7 5.48999ZM9.67 2.5C10.039 2.5 16.937 7.51598 17.238 7.72998C17.534 7.94298 17.518 8.34589 17.253 8.53589L10.114 13.6689C9.788 13.9029 9 13.7241 9 13.2661C9 2.70411 8.67 2.5 9.67 2.5ZM2.745 15.76C3.924 15.76 4.25201 15.33 7.00201 13.281C7.01201 14.747 8.38 15.7671 9.67 15.7671C10.64 15.7671 12.079 14.413 18 10V15C18 15.553 18.448 16 19 16C19.552 16 20 15.553 20 15L20 1C20 0.448 19.552 0 19 0C18.448 0 18 0.448 18 1V6L11.282 1.073C10.828 0.746998 10.161 0.550049 9.67 0.550049C8.391 0.550049 7.04001 1.52692 7.00601 2.97192C4.42201 1.04992 3.99101 0.512939 2.70401 0.512939C1.40501 0.512939 0 1.53589 0 3.01489V13.252C0 14.731 1.446 15.76 2.745 15.76Z" fill="#A06933"/>
</svg>
