<svg width="20" height="20" viewBox="0 0 20 20" fill="none" xmlns="http://www.w3.org/2000/svg">
<g clip-path="url(#clip0)">
<path fill-rule="evenodd" clip-rule="evenodd" d="M18 18.0005H2V2.00049H12V8.00049H18V18.0005ZM13.867 0.000488281H0V20.0005H20V6.20654L13.867 0.000488281Z" fill="#A06933"/>
<path d="M5.92969 12.5352H3.67969V14.0586H6.32031V15H2.50781V9.3125H6.3125V10.2617H3.67969V11.6172H5.92969V12.5352ZM11.0375 13.3594L11.8031 9.3125H12.9711L11.7094 15H10.5297L9.60391 11.1953L8.67812 15H7.49844L6.23672 9.3125H7.40469L8.17422 13.3516L9.11172 9.3125H10.1039L11.0375 13.3594ZM13.2078 15V9.3125H14.9578C15.4578 9.3125 15.9044 9.42578 16.2977 9.65234C16.6935 9.8763 17.0021 10.1966 17.2234 10.6133C17.4448 11.0273 17.5555 11.4987 17.5555 12.0273V12.2891C17.5555 12.8177 17.4461 13.2878 17.2273 13.6992C17.0112 14.1107 16.7052 14.4297 16.3094 14.6562C15.9135 14.8828 15.4669 14.9974 14.9695 15H13.2078ZM14.3797 10.2617V14.0586H14.9461C15.4044 14.0586 15.7547 13.9089 15.9969 13.6094C16.2391 13.3099 16.3628 12.8815 16.368 12.3242V12.0234C16.368 11.4453 16.2482 11.0078 16.0086 10.7109C15.769 10.4115 15.4187 10.2617 14.9578 10.2617H14.3797Z" fill="#A06933"/>
</g>
<defs>
<clipPath id="clip0">
<rect width="20" height="20" fill="white"/>
</clipPath>
</defs>
</svg>
