<svg width="21" height="21" viewBox="0 0 21 21" fill="none" xmlns="http://www.w3.org/2000/svg">
<path fill-rule="evenodd" clip-rule="evenodd" d="M11.55 9.45H14.7V11.55H11.55V14.7H9.45001V11.55H6.29999V9.45H9.45001V6.3H11.55V9.45ZM10.5 18.9C5.86845 18.9 2.10001 15.1315 2.10001 10.5C2.10001 5.86845 5.86845 2.1 10.5 2.1C15.1315 2.1 18.9 5.86845 18.9 10.5C18.9 15.1315 15.1315 18.9 10.5 18.9ZM10.5 0C4.70085 0 0 4.70085 0 10.5C0 16.2991 4.70085 21 10.5 21C16.2992 21 21 16.2991 21 10.5C21 4.70085 16.2992 0 10.5 0Z" fill="#D4A373"/>
</svg>
