<svg width="30" height="30" viewBox="0 0 30 30" fill="none" xmlns="http://www.w3.org/2000/svg">
<g clip-path="url(#clip0_326_115)">
<path fill-rule="evenodd" clip-rule="evenodd" d="M13.6795 14.041C15.334 14.041 16.6795 15.3865 16.6795 17.041C16.6795 18.6955 15.334 20.041 13.6795 20.041C12.025 20.041 10.6795 18.6955 10.6795 17.041C10.6795 15.3865 12.025 14.041 13.6795 14.041ZM7.6795 17.041C7.6795 20.3545 10.366 23.041 13.6795 23.041C14.6755 23.041 15.5995 22.7754 16.426 22.3464L20.2 26.1204L22.321 23.9993L18.6775 20.3544C19.3075 19.4049 19.6795 18.2665 19.6795 17.041C19.6795 13.7275 16.993 11.041 13.6795 11.041C10.366 11.041 7.6795 13.7275 7.6795 17.041ZM26.9995 27.001H2.99951V3.00098H11.9995V9.00098H26.9995V27.001ZM14.9995 6.00098V0.000976562H-0.000488281V30.001H29.9995V6.00098H14.9995Z" fill="#D4A373"/>
</g>
<defs>
<clipPath id="clip0_326_115">
<rect width="30" height="30" fill="white"/>
</clipPath>
</defs>
</svg>
