<svg width="119" height="27" viewBox="0 0 119 27" fill="none" xmlns="http://www.w3.org/2000/svg">
<g filter="url(#filter0_i)">
<rect x="1" y="1" width="117" height="25" rx="3" fill="#D4A373"/>
</g>
<rect x="1" y="1" width="117" height="25" rx="3" stroke="#A06933" stroke-width="2"/>
<path d="M17.1855 15.7617C17.1855 15.4297 17.0684 15.1758 16.834 15C16.5996 14.8203 16.1777 14.6328 15.5684 14.4375C14.959 14.2383 14.4766 14.043 14.1211 13.8516C13.1523 13.3281 12.668 12.623 12.668 11.7363C12.668 11.2754 12.7969 10.8652 13.0547 10.5059C13.3164 10.1426 13.6895 9.85938 14.1738 9.65625C14.6621 9.45312 15.209 9.35156 15.8145 9.35156C16.4238 9.35156 16.9668 9.46289 17.4434 9.68555C17.9199 9.9043 18.2891 10.2148 18.5508 10.6172C18.8164 11.0195 18.9492 11.4766 18.9492 11.9883H17.1914C17.1914 11.5977 17.0684 11.2949 16.8223 11.0801C16.5762 10.8613 16.2305 10.752 15.7852 10.752C15.3555 10.752 15.0215 10.8438 14.7832 11.0273C14.5449 11.207 14.4258 11.4453 14.4258 11.7422C14.4258 12.0195 14.5645 12.252 14.8418 12.4395C15.123 12.627 15.5352 12.8027 16.0781 12.9668C17.0781 13.2676 17.8066 13.6406 18.2637 14.0859C18.7207 14.5312 18.9492 15.0859 18.9492 15.75C18.9492 16.4883 18.6699 17.0684 18.1113 17.4902C17.5527 17.9082 16.8008 18.1172 15.8555 18.1172C15.1992 18.1172 14.6016 17.998 14.0625 17.7598C13.5234 17.5176 13.1113 17.1875 12.8262 16.7695C12.5449 16.3516 12.4043 15.8672 12.4043 15.3164H14.168C14.168 16.2578 14.7305 16.7285 15.8555 16.7285C16.2734 16.7285 16.5996 16.6445 16.834 16.4766C17.0684 16.3047 17.1855 16.0664 17.1855 15.7617ZM22.9512 18.1172C22.0215 18.1172 21.2637 17.832 20.6777 17.2617C20.0957 16.6914 19.8047 15.9316 19.8047 14.9824V14.8184C19.8047 14.1816 19.9277 13.6133 20.1738 13.1133C20.4199 12.6094 20.7676 12.2227 21.2168 11.9531C21.6699 11.6797 22.1855 11.543 22.7637 11.543C23.6309 11.543 24.3125 11.8164 24.8086 12.3633C25.3086 12.9102 25.5586 13.6855 25.5586 14.6895V15.3809H21.5215C21.5762 15.7949 21.7402 16.127 22.0137 16.377C22.291 16.627 22.6406 16.752 23.0625 16.752C23.7148 16.752 24.2246 16.5156 24.5918 16.043L25.4238 16.9746C25.1699 17.334 24.8262 17.6152 24.3926 17.8184C23.959 18.0176 23.4785 18.1172 22.9512 18.1172ZM22.7578 12.9141C22.4219 12.9141 22.1484 13.0273 21.9375 13.2539C21.7305 13.4805 21.5977 13.8047 21.5391 14.2266H23.8945V14.0918C23.8867 13.7168 23.7852 13.4277 23.5898 13.2246C23.3945 13.0176 23.1172 12.9141 22.7578 12.9141ZM28.5527 10.1016V11.6602H29.6367V12.9023H28.5527V16.0664C28.5527 16.3008 28.5977 16.4688 28.6875 16.5703C28.7773 16.6719 28.9492 16.7227 29.2031 16.7227C29.3906 16.7227 29.5566 16.709 29.7012 16.6816V17.9648C29.3691 18.0664 29.0273 18.1172 28.6758 18.1172C27.4883 18.1172 26.8828 17.5176 26.8594 16.3184V12.9023H25.9336V11.6602H26.8594V10.1016H28.5527ZM35.9414 15.9316L37.1191 11.6602H38.8887L36.75 18H35.1328L32.9941 11.6602H34.7637L35.9414 15.9316ZM39.2812 14.7715C39.2812 14.1426 39.4023 13.582 39.6445 13.0898C39.8867 12.5977 40.2344 12.2168 40.6875 11.9473C41.1445 11.6777 41.6738 11.543 42.2754 11.543C43.1309 11.543 43.8281 11.8047 44.3672 12.3281C44.9102 12.8516 45.2129 13.5625 45.2754 14.4609L45.2871 14.8945C45.2871 15.8672 45.0156 16.6484 44.4727 17.2383C43.9297 17.8242 43.2012 18.1172 42.2871 18.1172C41.373 18.1172 40.6426 17.8242 40.0957 17.2383C39.5527 16.6523 39.2812 15.8555 39.2812 14.8477V14.7715ZM40.9746 14.8945C40.9746 15.4961 41.0879 15.957 41.3145 16.2773C41.541 16.5938 41.8652 16.752 42.2871 16.752C42.6973 16.752 43.0176 16.5957 43.248 16.2832C43.4785 15.9668 43.5938 15.4629 43.5938 14.7715C43.5938 14.1816 43.4785 13.7246 43.248 13.4004C43.0176 13.0762 42.6934 12.9141 42.2754 12.9141C41.8613 12.9141 41.541 13.0762 41.3145 13.4004C41.0879 13.7207 40.9746 14.2188 40.9746 14.8945ZM48.1172 18H46.418V9H48.1172V18ZM51.5449 10.1016V11.6602H52.6289V12.9023H51.5449V16.0664C51.5449 16.3008 51.5898 16.4688 51.6797 16.5703C51.7695 16.6719 51.9414 16.7227 52.1953 16.7227C52.3828 16.7227 52.5488 16.709 52.6934 16.6816V17.9648C52.3613 18.0664 52.0195 18.1172 51.668 18.1172C50.4805 18.1172 49.875 17.5176 49.8516 16.3184V12.9023H48.9258V11.6602H49.8516V10.1016H51.5449ZM57.2461 18C57.168 17.8477 57.1113 17.6582 57.0762 17.4316C56.666 17.8887 56.1328 18.1172 55.4766 18.1172C54.8555 18.1172 54.3398 17.9375 53.9297 17.5781C53.5234 17.2188 53.3203 16.7656 53.3203 16.2188C53.3203 15.5469 53.5684 15.0312 54.0645 14.6719C54.5645 14.3125 55.2852 14.1309 56.2266 14.127H57.0059V13.7637C57.0059 13.4707 56.9297 13.2363 56.7773 13.0605C56.6289 12.8848 56.3926 12.7969 56.0684 12.7969C55.7832 12.7969 55.5586 12.8652 55.3945 13.002C55.2344 13.1387 55.1543 13.3262 55.1543 13.5645H53.4609C53.4609 13.1973 53.5742 12.8574 53.8008 12.5449C54.0273 12.2324 54.3477 11.9883 54.7617 11.8125C55.1758 11.6328 55.6406 11.543 56.1562 11.543C56.9375 11.543 57.5566 11.7402 58.0137 12.1348C58.4746 12.5254 58.7051 13.0762 58.7051 13.7871V16.5352C58.709 17.1367 58.793 17.5918 58.957 17.9004V18H57.2461ZM55.8457 16.8223C56.0957 16.8223 56.3262 16.7676 56.5371 16.6582C56.748 16.5449 56.9043 16.3945 57.0059 16.207V15.1172H56.373C55.5254 15.1172 55.0742 15.4102 55.0195 15.9961L55.0137 16.0957C55.0137 16.3066 55.0879 16.4805 55.2363 16.6172C55.3848 16.7539 55.5879 16.8223 55.8457 16.8223ZM59.7598 14.7832C59.7598 13.8105 59.9902 13.0273 60.4512 12.4336C60.916 11.8398 61.541 11.543 62.3262 11.543C63.0215 11.543 63.5625 11.7812 63.9492 12.2578L64.0195 11.6602H65.5547V17.7891C65.5547 18.3438 65.4277 18.8262 65.1738 19.2363C64.9238 19.6465 64.5703 19.959 64.1133 20.1738C63.6562 20.3887 63.1211 20.4961 62.5078 20.4961C62.043 20.4961 61.5898 20.4023 61.1484 20.2148C60.707 20.0312 60.373 19.793 60.1465 19.5L60.8965 18.4688C61.3184 18.9414 61.8301 19.1777 62.4316 19.1777C62.8809 19.1777 63.2305 19.0566 63.4805 18.8145C63.7305 18.5762 63.8555 18.2363 63.8555 17.7949V17.4551C63.4648 17.8965 62.9512 18.1172 62.3145 18.1172C61.5527 18.1172 60.9355 17.8203 60.4629 17.2266C59.9941 16.6289 59.7598 15.8379 59.7598 14.8535V14.7832ZM61.4531 14.9062C61.4531 15.4805 61.5684 15.9316 61.7988 16.2598C62.0293 16.584 62.3457 16.7461 62.748 16.7461C63.2637 16.7461 63.6328 16.5527 63.8555 16.166V13.5C63.6289 13.1133 63.2637 12.9199 62.7598 12.9199C62.3535 12.9199 62.0332 13.0859 61.7988 13.418C61.5684 13.75 61.4531 14.2461 61.4531 14.9062ZM69.7793 18.1172C68.8496 18.1172 68.0918 17.832 67.5059 17.2617C66.9238 16.6914 66.6328 15.9316 66.6328 14.9824V14.8184C66.6328 14.1816 66.7559 13.6133 67.002 13.1133C67.248 12.6094 67.5957 12.2227 68.0449 11.9531C68.498 11.6797 69.0137 11.543 69.5918 11.543C70.459 11.543 71.1406 11.8164 71.6367 12.3633C72.1367 12.9102 72.3867 13.6855 72.3867 14.6895V15.3809H68.3496C68.4043 15.7949 68.5684 16.127 68.8418 16.377C69.1191 16.627 69.4688 16.752 69.8906 16.752C70.543 16.752 71.0527 16.5156 71.4199 16.043L72.252 16.9746C71.998 17.334 71.6543 17.6152 71.2207 17.8184C70.7871 18.0176 70.3066 18.1172 69.7793 18.1172ZM69.5859 12.9141C69.25 12.9141 68.9766 13.0273 68.7656 13.2539C68.5586 13.4805 68.4258 13.8047 68.3672 14.2266H70.7227V14.0918C70.7148 13.7168 70.6133 13.4277 70.418 13.2246C70.2227 13.0176 69.9453 12.9141 69.5859 12.9141ZM78.3691 10.1016V11.6602H79.4531V12.9023H78.3691V16.0664C78.3691 16.3008 78.4141 16.4688 78.5039 16.5703C78.5938 16.6719 78.7656 16.7227 79.0195 16.7227C79.207 16.7227 79.373 16.709 79.5176 16.6816V17.9648C79.1855 18.0664 78.8438 18.1172 78.4922 18.1172C77.3047 18.1172 76.6992 17.5176 76.6758 16.3184V12.9023H75.75V11.6602H76.6758V10.1016H78.3691ZM79.957 14.7715C79.957 14.1426 80.0781 13.582 80.3203 13.0898C80.5625 12.5977 80.9102 12.2168 81.3633 11.9473C81.8203 11.6777 82.3496 11.543 82.9512 11.543C83.8066 11.543 84.5039 11.8047 85.043 12.3281C85.5859 12.8516 85.8887 13.5625 85.9512 14.4609L85.9629 14.8945C85.9629 15.8672 85.6914 16.6484 85.1484 17.2383C84.6055 17.8242 83.877 18.1172 82.9629 18.1172C82.0488 18.1172 81.3184 17.8242 80.7715 17.2383C80.2285 16.6523 79.957 15.8555 79.957 14.8477V14.7715ZM81.6504 14.8945C81.6504 15.4961 81.7637 15.957 81.9902 16.2773C82.2168 16.5938 82.541 16.752 82.9629 16.752C83.373 16.752 83.6934 16.5957 83.9238 16.2832C84.1543 15.9668 84.2695 15.4629 84.2695 14.7715C84.2695 14.1816 84.1543 13.7246 83.9238 13.4004C83.6934 13.0762 83.3691 12.9141 82.9512 12.9141C82.5371 12.9141 82.2168 13.0762 81.9902 13.4004C81.7637 13.7207 81.6504 14.2188 81.6504 14.8945ZM95.666 14.4727C95.666 15.6523 95.4219 16.5547 94.9336 17.1797C94.4453 17.8047 93.7305 18.1172 92.7891 18.1172C91.8594 18.1172 91.1484 17.8105 90.6562 17.1973C90.1641 16.584 89.9121 15.7051 89.9004 14.5605V12.9902C89.9004 11.7988 90.1465 10.8945 90.6387 10.2773C91.1348 9.66016 91.8477 9.35156 92.7773 9.35156C93.707 9.35156 94.418 9.6582 94.9102 10.2715C95.4023 10.8809 95.6543 11.7578 95.666 12.9023V14.4727ZM93.9727 12.75C93.9727 12.043 93.875 11.5293 93.6797 11.209C93.4883 10.8848 93.1875 10.7227 92.7773 10.7227C92.3789 10.7227 92.084 10.877 91.8926 11.1855C91.7051 11.4902 91.6055 11.9688 91.5938 12.6211V14.6953C91.5938 15.3906 91.6875 15.9082 91.875 16.248C92.0664 16.584 92.3711 16.752 92.7891 16.752C93.2031 16.752 93.502 16.5898 93.6855 16.2656C93.8691 15.9414 93.9648 15.4453 93.9727 14.7773V12.75ZM103.137 15.8848L105.07 9.46875H107.027L104.057 18H102.223L99.2637 9.46875H101.215L103.137 15.8848Z" fill="#FEFAE0"/>
<defs>
<filter id="filter0_i" x="0" y="0" width="119" height="30" filterUnits="userSpaceOnUse" color-interpolation-filters="sRGB">
<feFlood flood-opacity="0" result="BackgroundImageFix"/>
<feBlend mode="normal" in="SourceGraphic" in2="BackgroundImageFix" result="shape"/>
<feColorMatrix in="SourceAlpha" type="matrix" values="0 0 0 0 0 0 0 0 0 0 0 0 0 0 0 0 0 0 127 0" result="hardAlpha"/>
<feOffset dy="3"/>
<feGaussianBlur stdDeviation="2"/>
<feComposite in2="hardAlpha" operator="arithmetic" k2="-1" k3="1"/>
<feColorMatrix type="matrix" values="0 0 0 0 0.980392 0 0 0 0 0.929412 0 0 0 0 0.803922 0 0 0 0.5 0"/>
<feBlend mode="normal" in2="shape" result="effect1_innerShadow"/>
</filter>
</defs>
</svg>
