<svg width="17" height="22" viewBox="0 0 17 22" fill="none" xmlns="http://www.w3.org/2000/svg">
<g clip-path="url(#clip0)">
<path fill-rule="evenodd" clip-rule="evenodd" d="M16.3374 8.45902H15.0546C14.2907 12.6885 11.231 13.6932 9.18843 13.6932V20.0902C9.18843 20.6738 8.73089 21.1475 8.16715 21.1475C7.6034 21.1475 7.14587 20.6738 7.14587 20.0902V17.9227C4.08204 17.9227 1.73209 16.4984 1.12851 12.4856C0.475915 12.1325 0 11.4334 0 10.6182C0 9.44977 0.918128 8.50342 2.04664 8.50342C3.17413 8.50342 4.09532 9.44977 4.09532 10.6182C4.09532 11.3626 3.73481 12.0137 3.17311 12.3901C3.62553 15.0928 5.10332 15.7456 7.14587 15.8756V5.28689H5.05021L8.11404 0L11.1779 5.28689H9.18843V11.6353C11.231 11.4746 12.5025 10.5738 13.0121 8.45902H12.2523V4.22951H16.3374V8.45902Z" fill="#A06933"/>
</g>
<defs>
<clipPath id="clip0">
<rect width="16.3404" height="21.1475" fill="white"/>
</clipPath>
</defs>
</svg>
