<svg width="28" height="28" viewBox="0 0 28 28" fill="none" xmlns="http://www.w3.org/2000/svg">
<g filter="url(#filter0_d)">
<rect x="5" y="1" width="18" height="18" stroke="#21B214" stroke-width="2"/>
<path d="M9.91113 13H8.5V7.56055L6.81543 8.08301V6.93555L9.75977 5.88086H9.91113V13ZM16.3986 13H11.5256V12.0332L13.8254 9.58203C14.1411 9.23698 14.3739 8.93587 14.5236 8.67871C14.6766 8.42155 14.7531 8.17741 14.7531 7.94629C14.7531 7.63053 14.6734 7.38314 14.5139 7.2041C14.3544 7.02181 14.1265 6.93066 13.8303 6.93066C13.5113 6.93066 13.259 7.04134 13.0734 7.2627C12.8911 7.48079 12.8 7.76888 12.8 8.12695H11.384C11.384 7.69401 11.4865 7.2985 11.6916 6.94043C11.8999 6.58236 12.1929 6.30241 12.5705 6.10059C12.9481 5.89551 13.3762 5.79297 13.8547 5.79297C14.5871 5.79297 15.1551 5.96875 15.5588 6.32031C15.9657 6.67188 16.1691 7.16829 16.1691 7.80957C16.1691 8.16113 16.078 8.51921 15.8957 8.88379C15.7134 9.24837 15.4009 9.67318 14.9582 10.1582L13.342 11.8623H16.3986V13ZM18.0033 8.82031H18.7553C19.1133 8.82031 19.3786 8.73079 19.5512 8.55176C19.7237 8.37272 19.81 8.13509 19.81 7.83887C19.81 7.55241 19.7237 7.32943 19.5512 7.16992C19.3819 7.01042 19.1475 6.93066 18.848 6.93066C18.5779 6.93066 18.3516 7.00553 18.1693 7.15527C17.987 7.30176 17.8959 7.49382 17.8959 7.73145H16.4848C16.4848 7.36035 16.584 7.02832 16.7826 6.73535C16.9844 6.43913 17.2644 6.20801 17.6225 6.04199C17.9838 5.87598 18.3809 5.79297 18.8139 5.79297C19.5658 5.79297 20.155 5.97363 20.5814 6.33496C21.0079 6.69303 21.2211 7.18783 21.2211 7.81934C21.2211 8.14486 21.1218 8.44434 20.9232 8.71777C20.7247 8.99121 20.4643 9.20117 20.142 9.34766C20.5424 9.49089 20.8402 9.70573 21.0355 9.99219C21.2341 10.2786 21.3334 10.6172 21.3334 11.0078C21.3334 11.6393 21.1023 12.1455 20.64 12.5264C20.1811 12.9072 19.5723 13.0977 18.8139 13.0977C18.1042 13.0977 17.5232 12.9105 17.0707 12.5361C16.6215 12.1618 16.3969 11.667 16.3969 11.0518H17.808C17.808 11.3187 17.9073 11.5368 18.1059 11.7061C18.3077 11.8753 18.5551 11.96 18.848 11.96C19.1833 11.96 19.4454 11.8721 19.6342 11.6963C19.8262 11.5173 19.9223 11.2812 19.9223 10.9883C19.9223 10.2786 19.5316 9.92383 18.7504 9.92383H18.0033V8.82031Z" fill="#21B214"/>
</g>
<defs>
<filter id="filter0_d" x="0" y="0" width="28" height="28" filterUnits="userSpaceOnUse" color-interpolation-filters="sRGB">
<feFlood flood-opacity="0" result="BackgroundImageFix"/>
<feColorMatrix in="SourceAlpha" type="matrix" values="0 0 0 0 0 0 0 0 0 0 0 0 0 0 0 0 0 0 127 0"/>
<feOffset dy="4"/>
<feGaussianBlur stdDeviation="2"/>
<feColorMatrix type="matrix" values="0 0 0 0 0.537255 0 0 0 0 1 0 0 0 0 0.494118 0 0 0 0.5 0"/>
<feBlend mode="normal" in2="BackgroundImageFix" result="effect1_dropShadow"/>
<feBlend mode="normal" in="SourceGraphic" in2="effect1_dropShadow" result="shape"/>
</filter>
</defs>
</svg>
