<svg width="66" height="27" viewBox="0 0 66 27" fill="none" xmlns="http://www.w3.org/2000/svg">
<g filter="url(#filter0_i)">
<rect x="1" y="1" width="64" height="25" rx="3" fill="#D4A373"/>
</g>
<rect x="1" y="1" width="64" height="25" rx="3" stroke="#A06933" stroke-width="2"/>
<path d="M14.0498 15.3887C14.0498 15.0013 13.9131 14.7051 13.6396 14.5C13.3662 14.2904 12.874 14.0716 12.1631 13.8438C11.4521 13.6113 10.8893 13.3835 10.4746 13.1602C9.3444 12.5495 8.7793 11.7269 8.7793 10.6924C8.7793 10.1546 8.92969 9.67611 9.23047 9.25684C9.53581 8.83301 9.97103 8.5026 10.5361 8.26562C11.1058 8.02865 11.7438 7.91016 12.4502 7.91016C13.1611 7.91016 13.7946 8.04004 14.3506 8.2998C14.9066 8.55501 15.3372 8.91732 15.6426 9.38672C15.9525 9.85612 16.1074 10.3893 16.1074 10.9863H14.0566C14.0566 10.5306 13.9131 10.1774 13.626 9.92676C13.3389 9.67155 12.9355 9.54395 12.416 9.54395C11.9147 9.54395 11.5251 9.65104 11.2471 9.86523C10.9691 10.0749 10.8301 10.3529 10.8301 10.6992C10.8301 11.0228 10.9919 11.2939 11.3154 11.5127C11.6436 11.7314 12.1243 11.9365 12.7578 12.1279C13.9245 12.4788 14.7744 12.9141 15.3076 13.4336C15.8408 13.9531 16.1074 14.6003 16.1074 15.375C16.1074 16.2363 15.7816 16.9131 15.1299 17.4053C14.4782 17.8929 13.6009 18.1367 12.498 18.1367C11.7324 18.1367 11.0352 17.9977 10.4062 17.7197C9.77734 17.4372 9.29655 17.0521 8.96387 16.5645C8.63574 16.0768 8.47168 15.5117 8.47168 14.8691H10.5293C10.5293 15.9674 11.1855 16.5166 12.498 16.5166C12.9857 16.5166 13.3662 16.4186 13.6396 16.2227C13.9131 16.0221 14.0498 15.7441 14.0498 15.3887ZM20.7764 18.1367C19.6917 18.1367 18.8076 17.804 18.124 17.1387C17.445 16.4733 17.1055 15.5869 17.1055 14.4795V14.2881C17.1055 13.5452 17.249 12.8822 17.5361 12.2988C17.8232 11.7109 18.2288 11.2598 18.7529 10.9453C19.2816 10.6263 19.8831 10.4668 20.5576 10.4668C21.5693 10.4668 22.3646 10.7858 22.9434 11.4238C23.5267 12.0618 23.8184 12.9665 23.8184 14.1377V14.9443H19.1084C19.1722 15.4274 19.3636 15.8148 19.6826 16.1064C20.0062 16.3981 20.4141 16.5439 20.9062 16.5439C21.6673 16.5439 22.262 16.2682 22.6904 15.7168L23.6611 16.8037C23.3649 17.223 22.9639 17.5511 22.458 17.7881C21.9521 18.0205 21.3916 18.1367 20.7764 18.1367ZM20.5508 12.0664C20.1589 12.0664 19.8398 12.1986 19.5938 12.4629C19.3522 12.7272 19.1973 13.1055 19.1289 13.5977H21.877V13.4404C21.8678 13.0029 21.7493 12.6657 21.5215 12.4287C21.2936 12.1872 20.9701 12.0664 20.5508 12.0664ZM27.3115 8.78516V10.6035H28.5762V12.0527H27.3115V15.7441C27.3115 16.0176 27.3639 16.2135 27.4688 16.332C27.5736 16.4505 27.7741 16.5098 28.0703 16.5098C28.2891 16.5098 28.4827 16.4938 28.6514 16.4619V17.959C28.264 18.0775 27.8652 18.1367 27.4551 18.1367C26.0697 18.1367 25.3633 17.4372 25.3359 16.0381V12.0527H24.2559V10.6035H25.3359V8.78516H27.3115ZM36.9707 15.5322L39.2266 8.04688H41.5098L38.0439 18H35.9043L32.4521 8.04688H34.7285L36.9707 15.5322ZM48.9814 14.3701C48.9814 15.5094 48.7217 16.4232 48.2021 17.1113C47.6872 17.7949 46.9899 18.1367 46.1104 18.1367C45.363 18.1367 44.7591 17.877 44.2988 17.3574V20.8438H42.3232V10.6035H44.1553L44.2236 11.3281C44.7021 10.7539 45.3265 10.4668 46.0967 10.4668C47.0081 10.4668 47.7168 10.804 48.2227 11.4785C48.7285 12.153 48.9814 13.0827 48.9814 14.2676V14.3701ZM47.0059 14.2266C47.0059 13.5384 46.8828 13.0075 46.6367 12.6338C46.3952 12.2601 46.042 12.0732 45.5771 12.0732C44.9574 12.0732 44.5312 12.3102 44.2988 12.7842V15.8125C44.5404 16.3001 44.971 16.5439 45.5908 16.5439C46.5342 16.5439 47.0059 15.7715 47.0059 14.2266ZM56.8701 14.3701C56.8701 15.5094 56.6104 16.4232 56.0908 17.1113C55.5758 17.7949 54.8786 18.1367 53.999 18.1367C53.2516 18.1367 52.6478 17.877 52.1875 17.3574V20.8438H50.2119V10.6035H52.0439L52.1123 11.3281C52.5908 10.7539 53.2152 10.4668 53.9854 10.4668C54.8968 10.4668 55.6055 10.804 56.1113 11.4785C56.6172 12.153 56.8701 13.0827 56.8701 14.2676V14.3701ZM54.8945 14.2266C54.8945 13.5384 54.7715 13.0075 54.5254 12.6338C54.2839 12.2601 53.9307 12.0732 53.4658 12.0732C52.846 12.0732 52.4199 12.3102 52.1875 12.7842V15.8125C52.429 16.3001 52.8597 16.5439 53.4795 16.5439C54.4229 16.5439 54.8945 15.7715 54.8945 14.2266Z" fill="#FEFAE0"/>
<defs>
<filter id="filter0_i" x="0" y="0" width="66" height="30" filterUnits="userSpaceOnUse" color-interpolation-filters="sRGB">
<feFlood flood-opacity="0" result="BackgroundImageFix"/>
<feBlend mode="normal" in="SourceGraphic" in2="BackgroundImageFix" result="shape"/>
<feColorMatrix in="SourceAlpha" type="matrix" values="0 0 0 0 0 0 0 0 0 0 0 0 0 0 0 0 0 0 127 0" result="hardAlpha"/>
<feOffset dy="3"/>
<feGaussianBlur stdDeviation="2"/>
<feComposite in2="hardAlpha" operator="arithmetic" k2="-1" k3="1"/>
<feColorMatrix type="matrix" values="0 0 0 0 0 0 0 0 0 0 0 0 0 0 0 0 0 0 0.25 0"/>
<feBlend mode="normal" in2="shape" result="effect1_innerShadow"/>
</filter>
</defs>
</svg>
